<svg width="59" height="24" viewBox="0 0 59 24" fill="none" xmlns="http://www.w3.org/2000/svg">
<path d="M21.6336 14.6667C21.8669 13.8333 22.0002 12.9333 22.0002 12C22.0002 11.0667 21.8669 10.1667 21.6336 9.33332H11.9002L6.26689 3.79999C4.93356 4.73332 3.83356 5.99999 3.06689 7.46665L7.66689 12L3.10023 16.5333C3.83356 18 4.93356 19.2667 6.30023 20.2L11.9002 14.6667H21.6336Z" fill="#699635"/>
<path d="M2.5 8.83331C2.16667 9.83331 2 10.9 2 12C2 13.1 2.16667 14.1666 2.5 15.1666L5.7 12L2.5 8.83331Z" fill="#3E4347"/>
<path d="M7.43311 20.9C8.79977 21.6 10.3664 22 11.9998 22C16.0998 22 19.6331 19.5333 21.1664 15.9667H12.4664L7.43311 20.9Z" fill="#428BC1"/>
<path d="M21.1664 8.03333C19.6331 4.46667 16.0998 2 11.9998 2C10.3664 2 8.79977 2.4 7.43311 3.1L12.4664 8.03333H21.1664Z" fill="#ED4C5C"/>
<path d="M21.4999 8.90001C21.3999 8.60001 21.2999 8.30001 21.1666 8.03334H12.4666L7.43327 3.10001C7.19993 3.20001 6.99993 3.33334 6.7666 3.46667C6.59993 3.56667 6.43327 3.70001 6.2666 3.80001L11.8999 9.33334H21.6333C21.5999 9.20001 21.5666 9.03334 21.4999 8.90001Z" fill="white"/>
<path d="M3.09987 7.46667C3.06654 7.53334 3.0332 7.60001 2.99987 7.70001C2.8332 8.06668 2.66654 8.43334 2.5332 8.83334L5.7332 12L2.5332 15.1667C2.66654 15.5667 2.79987 15.9333 2.99987 16.3C3.0332 16.3667 3.06654 16.4333 3.09987 16.5333L7.66654 12L3.09987 7.46667Z" fill="#FFCE31"/>
<path d="M11.8999 14.6667L6.2666 20.2C6.3666 20.2667 6.49993 20.3667 6.59993 20.4334C6.8666 20.6 7.13327 20.7667 7.43327 20.9L12.4666 15.9667H21.1666C21.2999 15.6334 21.4333 15.3 21.5666 14.9334C21.5999 14.8334 21.5999 14.7667 21.6333 14.6667H11.8999Z" fill="white"/>
<rect x="1.25" y="1.25" width="21.5" height="21.5" rx="10.75" stroke="white" stroke-width="1.5"/>
<g clip-path="url(#clip0_67_229)">
<path d="M28.3588 3.53589C26.8229 2.56761 24.9865 2 23.0166 2C21.0466 2 19.2102 2.56761 17.6743 3.53589V20.4641C19.2102 21.4324 21.0466 22 23.0166 22C24.9865 22 26.8229 21.4324 28.3588 20.4641V3.53589Z" fill="#F9F9F9"/>
<path d="M28.3589 3.53589V20.4641C31.1636 18.7279 33.0334 15.5225 33.0334 11.9833C33.0334 8.44407 31.1636 5.3055 28.3589 3.53589ZM17.6745 3.53589C14.8698 5.3055 13 8.51085 13 12.0167C13 15.5225 14.8698 18.7279 17.6745 20.4975V3.53589ZM26.6561 11.8831C26.5225 11.8164 26.4891 11.6828 26.5225 11.616L26.8564 10.414L25.6878 10.6477C25.6544 10.6477 25.5209 10.6477 25.4875 10.414L25.3873 10.0134L24.586 10.9482C24.586 10.9482 24.0518 11.5159 24.2187 10.6477L24.5526 8.81135L23.9182 9.14524C23.8848 9.14524 23.7513 9.17863 23.5843 8.84474L23.0167 7.67612L22.4157 8.77796C22.2487 9.11185 22.1152 9.07846 22.0818 9.07846L21.4474 8.74457L21.7813 10.581C21.9482 11.4491 21.414 10.8815 21.414 10.8815L20.6127 9.94657L20.5125 10.3472C20.4457 10.581 20.3456 10.581 20.3122 10.581L19.1436 10.3472L19.4775 11.5492C19.4775 11.6494 19.4775 11.7496 19.3439 11.8164L19.01 12.0167C19.01 12.0167 20.3456 13.0851 20.7796 13.4524C20.8798 13.5192 21.0801 13.7195 21.0134 13.9533L20.8464 14.4207L22.6828 14.1536C22.783 14.1536 22.9833 14.1536 22.9499 14.4541L22.8497 16.3573H23.1836L23.0835 14.4541C23.0835 14.1536 23.2838 14.1536 23.3506 14.1536L25.187 14.4207L25.02 13.9533C24.9533 13.7195 25.1536 13.5192 25.2538 13.4524C25.6878 13.0851 27.0234 12.0167 27.0234 12.0167L26.6561 11.8831Z" fill="#ED4C5C"/>
</g>
<rect x="12.25" y="1.25" width="21.5" height="21.5" rx="10.75" stroke="white" stroke-width="1.5"/>
<g clip-path="url(#clip1_67_229)">
<path d="M41.3333 3.53333C39.7667 2.56667 37.9667 2 36 2V3.53333H41.3333Z" fill="#ED4C5C"/>
<path d="M36 5.06666H43.2C42.6333 4.49999 42 3.96666 41.3333 3.53333H36V5.06666Z" fill="white"/>
<path d="M36 6.59995H44.4333C44.0667 6.03329 43.6667 5.53329 43.2333 5.06662H36V6.59995Z" fill="#ED4C5C"/>
<path d="M36 8.13331H45.2333C45 7.59998 44.7333 7.06664 44.4333 6.59998H36V8.13331Z" fill="white"/>
<path d="M36 9.6667H45.7333C45.6 9.13336 45.4333 8.63336 45.2333 8.13336H36V9.6667Z" fill="#ED4C5C"/>
<path d="M36 11.2333H45.9667C45.9333 10.7 45.8333 10.2 45.7333 9.70001H36V11.2333Z" fill="white"/>
<path d="M45.9667 11.2333H36V12H26C26 12.2667 26 12.5 26.0333 12.7667H45.9667C46 12.5 46 12.2667 46 12C46 11.7333 46 11.4667 45.9667 11.2333Z" fill="#ED4C5C"/>
<path d="M26.2665 14.2999H45.7332C45.8665 13.7999 45.9332 13.2999 45.9665 12.7666H26.0332C26.0665 13.2666 26.1332 13.7999 26.2665 14.2999Z" fill="white"/>
<path d="M26.7666 15.8334H45.2333C45.4333 15.3334 45.5999 14.8334 45.7333 14.3H26.2666C26.3999 14.8334 26.5666 15.3334 26.7666 15.8334Z" fill="#ED4C5C"/>
<path d="M27.5666 17.3667H44.4333C44.7333 16.8667 44.9999 16.3667 45.2333 15.8334H26.7666C26.9999 16.3667 27.2666 16.8667 27.5666 17.3667Z" fill="white"/>
<path d="M28.7669 18.9H43.2336C43.6669 18.4334 44.1002 17.9 44.4336 17.3667H27.5669C27.9002 17.9334 28.3336 18.4334 28.7669 18.9Z" fill="#ED4C5C"/>
<path d="M30.6333 20.4334H41.3666C42.0666 20 42.6666 19.4667 43.2333 18.9H28.7666C29.3333 19.5 29.9666 20 30.6333 20.4334Z" fill="white"/>
<path d="M36 22C37.9666 22 39.8 21.4333 41.3666 20.4333H30.6333C32.2 21.4333 34.0333 22 36 22Z" fill="#ED4C5C"/>
<path d="M30.6667 3.53333C29.9667 3.96667 29.3333 4.5 28.7667 5.06667C28.3 5.53333 27.9 6.06667 27.5667 6.6C27.2667 7.1 26.9667 7.6 26.7667 8.13333C26.5667 8.63333 26.4 9.13333 26.2667 9.66667C26.1333 10.1667 26.0667 10.6667 26.0333 11.2C26 11.4667 26 11.7333 26 12H36V2C34.0333 2 32.2333 2.56667 30.6667 3.53333Z" fill="#428BC1"/>
<path d="M33.6668 2.33328L33.8335 2.83328H34.3335L33.9335 3.16662L34.0668 3.66662L33.6668 3.36662L33.2668 3.66662L33.4001 3.16662L33.0001 2.83328H33.5001L33.6668 2.33328ZM35.0001 4.33328L35.1668 4.83328H35.6668L35.2668 5.16662L35.4001 5.66662L35.0001 5.36662L34.6001 5.66662L34.7335 5.16662L34.3335 4.83328H34.8335L35.0001 4.33328ZM32.3335 4.33328L32.5001 4.83328H33.0001L32.6001 5.16662L32.7335 5.66662L32.3335 5.36662L31.9335 5.66662L32.0668 5.16662L31.6668 4.83328H32.1668L32.3335 4.33328ZM33.6668 6.33328L33.8335 6.83328H34.3335L33.9335 7.16662L34.0668 7.66662L33.6668 7.36662L33.2668 7.66662L33.4001 7.16662L33.0001 6.83328H33.5001L33.6668 6.33328ZM31.0001 6.33328L31.1668 6.83328H31.6668L31.2668 7.16662L31.4001 7.66662L31.0001 7.36662L30.6001 7.66662L30.7335 7.16662L30.3335 6.83328H30.8335L31.0001 6.33328ZM28.3335 6.33328L28.5001 6.83328H29.0001L28.6001 7.16662L28.7335 7.66662L28.3335 7.36662L27.9335 7.66662L28.0668 7.16662L27.6668 6.83328H28.1668L28.3335 6.33328ZM35.0001 8.33328L35.1668 8.83328H35.6668L35.2668 9.16661L35.4001 9.66661L35.0001 9.36661L34.6001 9.66661L34.7335 9.16661L34.3335 8.83328H34.8335L35.0001 8.33328ZM32.3335 8.33328L32.5001 8.83328H33.0001L32.6001 9.16661L32.7335 9.66661L32.3335 9.36661L31.9335 9.66661L32.0668 9.16661L31.6668 8.83328H32.1668L32.3335 8.33328ZM29.6668 8.33328L29.8335 8.83328H30.3335L29.9335 9.16661L30.0668 9.66661L29.6668 9.36661L29.2668 9.66661L29.4001 9.16661L29.0001 8.83328H29.5001L29.6668 8.33328ZM33.6668 10.3333L33.8335 10.8333H34.3335L33.9335 11.1666L34.0668 11.6666L33.6668 11.3666L33.2668 11.6666L33.4001 11.1666L33.0001 10.8333H33.5001L33.6668 10.3333ZM31.0001 10.3333L31.1668 10.8333H31.6668L31.2668 11.1666L31.4001 11.6666L31.0001 11.3666L30.6001 11.6666L30.7335 11.1666L30.3335 10.8333H30.8335L31.0001 10.3333ZM28.3335 10.3333L28.5001 10.8333H29.0001L28.6001 11.1666L28.7335 11.6666L28.3335 11.3666L27.9335 11.6666L28.0668 11.1666L27.6668 10.8333H28.1668L28.3335 10.3333ZM29.2668 5.66662L29.6668 5.36662L30.0668 5.66662L29.9001 5.16662L30.3001 4.83328H29.8001L29.6668 4.33328L29.5001 4.83328H29.0335L29.4335 5.13328L29.2668 5.66662ZM26.6001 9.66661L27.0001 9.36661L27.4001 9.66661L27.2335 9.16661L27.6335 8.83328H27.1668L27.0001 8.33328L26.8335 8.83328H26.5001C26.5001 8.86661 26.4668 8.89995 26.4668 8.93328L26.7335 9.13328L26.6001 9.66661Z" fill="white"/>
</g>
<rect x="25.25" y="1.25" width="21.5" height="21.5" rx="10.75" stroke="white" stroke-width="1.5"/>
<g clip-path="url(#clip2_67_229)">
<path d="M52.3333 3.53333C50.7667 2.56667 48.9667 2 47 2V3.53333H52.3333Z" fill="#ED4C5C"/>
<path d="M47 5.06666H54.2C53.6333 4.49999 53 3.96666 52.3333 3.53333H47V5.06666Z" fill="white"/>
<path d="M47 6.59995H55.4333C55.0667 6.03329 54.6667 5.53329 54.2333 5.06662H47V6.59995Z" fill="#ED4C5C"/>
<path d="M47 8.13331H56.2333C56 7.59998 55.7333 7.06664 55.4333 6.59998H47V8.13331Z" fill="white"/>
<path d="M47 9.6667H56.7333C56.6 9.13336 56.4333 8.63336 56.2333 8.13336H47V9.6667Z" fill="#ED4C5C"/>
<path d="M47 11.2333H56.9667C56.9333 10.7 56.8333 10.2 56.7333 9.70001H47V11.2333Z" fill="white"/>
<path d="M56.9667 11.2333H47V12H37C37 12.2667 37 12.5 37.0333 12.7667H56.9667C57 12.5 57 12.2667 57 12C57 11.7333 57 11.4667 56.9667 11.2333Z" fill="#ED4C5C"/>
<path d="M37.2665 14.2999H56.7332C56.8665 13.7999 56.9332 13.2999 56.9665 12.7666H37.0332C37.0665 13.2666 37.1332 13.7999 37.2665 14.2999Z" fill="white"/>
<path d="M37.7666 15.8334H56.2333C56.4333 15.3334 56.5999 14.8334 56.7333 14.3H37.2666C37.3999 14.8334 37.5666 15.3334 37.7666 15.8334Z" fill="#ED4C5C"/>
<path d="M38.5666 17.3667H55.4333C55.7333 16.8667 55.9999 16.3667 56.2333 15.8334H37.7666C37.9999 16.3667 38.2666 16.8667 38.5666 17.3667Z" fill="white"/>
<path d="M39.7669 18.9H54.2336C54.6669 18.4334 55.1002 17.9 55.4336 17.3667H38.5669C38.9002 17.9334 39.3336 18.4334 39.7669 18.9Z" fill="#ED4C5C"/>
<path d="M41.6333 20.4334H52.3666C53.0666 20 53.6666 19.4667 54.2333 18.9H39.7666C40.3333 19.5 40.9666 20 41.6333 20.4334Z" fill="white"/>
<path d="M47 22C48.9666 22 50.8 21.4333 52.3666 20.4333H41.6333C43.2 21.4333 45.0333 22 47 22Z" fill="#ED4C5C"/>
<path d="M41.6667 3.53333C40.9667 3.96667 40.3333 4.5 39.7667 5.06667C39.3 5.53333 38.9 6.06667 38.5667 6.6C38.2667 7.1 37.9667 7.6 37.7667 8.13333C37.5667 8.63333 37.4 9.13333 37.2667 9.66667C37.1333 10.1667 37.0667 10.6667 37.0333 11.2C37 11.4667 37 11.7333 37 12H47V2C45.0333 2 43.2333 2.56667 41.6667 3.53333Z" fill="#428BC1"/>
<path d="M44.6668 2.33328L44.8335 2.83328H45.3335L44.9335 3.16662L45.0668 3.66662L44.6668 3.36662L44.2668 3.66662L44.4001 3.16662L44.0001 2.83328H44.5001L44.6668 2.33328ZM46.0001 4.33328L46.1668 4.83328H46.6668L46.2668 5.16662L46.4001 5.66662L46.0001 5.36662L45.6001 5.66662L45.7335 5.16662L45.3335 4.83328H45.8335L46.0001 4.33328ZM43.3335 4.33328L43.5001 4.83328H44.0001L43.6001 5.16662L43.7335 5.66662L43.3335 5.36662L42.9335 5.66662L43.0668 5.16662L42.6668 4.83328H43.1668L43.3335 4.33328ZM44.6668 6.33328L44.8335 6.83328H45.3335L44.9335 7.16662L45.0668 7.66662L44.6668 7.36662L44.2668 7.66662L44.4001 7.16662L44.0001 6.83328H44.5001L44.6668 6.33328ZM42.0001 6.33328L42.1668 6.83328H42.6668L42.2668 7.16662L42.4001 7.66662L42.0001 7.36662L41.6001 7.66662L41.7335 7.16662L41.3335 6.83328H41.8335L42.0001 6.33328ZM39.3335 6.33328L39.5001 6.83328H40.0001L39.6001 7.16662L39.7335 7.66662L39.3335 7.36662L38.9335 7.66662L39.0668 7.16662L38.6668 6.83328H39.1668L39.3335 6.33328ZM46.0001 8.33328L46.1668 8.83328H46.6668L46.2668 9.16661L46.4001 9.66661L46.0001 9.36661L45.6001 9.66661L45.7335 9.16661L45.3335 8.83328H45.8335L46.0001 8.33328ZM43.3335 8.33328L43.5001 8.83328H44.0001L43.6001 9.16661L43.7335 9.66661L43.3335 9.36661L42.9335 9.66661L43.0668 9.16661L42.6668 8.83328H43.1668L43.3335 8.33328ZM40.6668 8.33328L40.8335 8.83328H41.3335L40.9335 9.16661L41.0668 9.66661L40.6668 9.36661L40.2668 9.66661L40.4001 9.16661L40.0001 8.83328H40.5001L40.6668 8.33328ZM44.6668 10.3333L44.8335 10.8333H45.3335L44.9335 11.1666L45.0668 11.6666L44.6668 11.3666L44.2668 11.6666L44.4001 11.1666L44.0001 10.8333H44.5001L44.6668 10.3333ZM42.0001 10.3333L42.1668 10.8333H42.6668L42.2668 11.1666L42.4001 11.6666L42.0001 11.3666L41.6001 11.6666L41.7335 11.1666L41.3335 10.8333H41.8335L42.0001 10.3333ZM39.3335 10.3333L39.5001 10.8333H40.0001L39.6001 11.1666L39.7335 11.6666L39.3335 11.3666L38.9335 11.6666L39.0668 11.1666L38.6668 10.8333H39.1668L39.3335 10.3333ZM40.2668 5.66662L40.6668 5.36662L41.0668 5.66662L40.9001 5.16662L41.3001 4.83328H40.8001L40.6668 4.33328L40.5001 4.83328H40.0335L40.4335 5.13328L40.2668 5.66662ZM37.6001 9.66661L38.0001 9.36661L38.4001 9.66661L38.2335 9.16661L38.6335 8.83328H38.1668L38.0001 8.33328L37.8335 8.83328H37.5001C37.5001 8.86661 37.4668 8.89995 37.4668 8.93328L37.7335 9.13328L37.6001 9.66661Z" fill="white"/>
<mask id="mask0_67_229" style="mask-type:luminance" maskUnits="userSpaceOnUse" x="37" y="2" width="20" height="20">
<path d="M47 22C52.5228 22 57 17.5228 57 12C57 6.47715 52.5228 2 47 2C41.4772 2 37 6.47715 37 12C37 17.5228 41.4772 22 47 22Z" fill="white"/>
</mask>
<g mask="url(#mask0_67_229)">
<path d="M37 2L37.3125 2.85938L37 3.75781V4.65625L38.25 6.76562L37 8.875V10.125L38.25 12L37 13.875V15.125L38.25 17.2344L37 19.3438V22L37.8594 21.6875L38.7578 22H39.6562L41.7656 20.75L43.875 22H45.125L47 20.75L48.875 22H50.125L52.2344 20.75L54.3438 22H57L56.6875 21.1406L57 20.2422V19.3438L55.75 17.2344L57 15.125V13.875L55.75 12L57 10.125V8.875L55.75 6.76562L57 4.65625V2L56.1406 2.3125L55.2422 2H54.3438L52.2344 3.25L50.125 2H48.875L47 3.25L45.125 2H43.875L41.7656 3.25L39.6562 2H37Z" fill="white"/>
<path d="M50.125 2V6.21875L54.3438 2H50.125ZM57 4.65625L52.7812 8.875H57V4.65625ZM37 8.875H41.2188L37 4.65625V8.875ZM39.6562 2L43.875 6.21875V2H39.6562ZM43.875 22V17.7812L39.6562 22H43.875ZM37 19.3438L41.2188 15.125H37V19.3438ZM57 15.125H52.7812L57 19.3438V15.125ZM54.3438 22L50.125 17.7812V22H54.3438Z" fill="#0052B4"/>
<path d="M37 2V3.75781L42.1172 8.875H43.875L37 2ZM45.125 2V10.125H37V13.875H45.125V22H48.875V13.875H57V10.125H48.875V2H45.125ZM55.2422 2L50.125 7.11719V8.875L57 2H55.2422ZM43.875 15.125L37 22H38.7578L43.875 16.8828V15.125ZM50.125 15.125L57 22V20.2422L51.8828 15.125H50.125Z" fill="#E4032C"/>
</g>
</g>
<rect x="36.25" y="1.25" width="21.5" height="21.5" rx="10.75" stroke="white" stroke-width="1.5"/>
<defs>
<clipPath id="clip0_67_229">
<rect x="13" y="2" width="20" height="20" rx="10" fill="white"/>
</clipPath>
<clipPath id="clip1_67_229">
<rect x="26" y="2" width="20" height="20" rx="10" fill="white"/>
</clipPath>
<clipPath id="clip2_67_229">
<rect x="37" y="2" width="20" height="20" rx="10" fill="white"/>
</clipPath>
</defs>
</svg>
