<svg width="20" height="20" viewBox="0 0 20 20" fill="none" xmlns="http://www.w3.org/2000/svg">
<path d="M14.9999 8.33337H11.6666V5.00004C11.6666 4.55801 11.491 4.13409 11.1784 3.82153C10.8659 3.50897 10.4419 3.33337 9.99992 3.33337C9.55789 3.33337 9.13397 3.50897 8.82141 3.82153C8.50885 4.13409 8.33325 4.55801 8.33325 5.00004L8.39242 8.33337H4.99992C4.55789 8.33337 4.13397 8.50897 3.82141 8.82153C3.50885 9.13409 3.33325 9.55801 3.33325 10C3.33325 10.4421 3.50885 10.866 3.82141 11.1786C4.13397 11.4911 4.55789 11.6667 4.99992 11.6667L8.39242 11.6075L8.33325 15C8.33325 15.4421 8.50885 15.866 8.82141 16.1786C9.13397 16.4911 9.55789 16.6667 9.99992 16.6667C10.4419 16.6667 10.8659 16.4911 11.1784 16.1786C11.491 15.866 11.6666 15.4421 11.6666 15V11.6075L14.9999 11.6667C15.4419 11.6667 15.8659 11.4911 16.1784 11.1786C16.491 10.866 16.6666 10.4421 16.6666 10C16.6666 9.55801 16.491 9.13409 16.1784 8.82153C15.8659 8.50897 15.4419 8.33337 14.9999 8.33337Z" fill="white"/>
</svg>
