<svg width="120" height="120" viewBox="0 0 120 120" fill="none" xmlns="http://www.w3.org/2000/svg">
<path d="M59.9999 1.43945C27.7113 1.43945 1.43945 27.7113 1.43945 59.9999C1.43945 92.2886 27.7113 118.56 59.9999 118.56C92.2886 118.56 118.56 92.2886 118.56 59.9999C118.56 27.7113 92.2886 1.43945 59.9999 1.43945ZM98.3744 59.9999C98.3744 59.3685 98.8909 58.8517 99.5226 58.8517C100.166 58.8517 100.671 59.3685 100.671 59.9999C100.671 82.4252 82.4252 100.671 59.9999 100.671C59.3685 100.671 58.8517 100.165 58.8517 99.5226C58.8517 98.8912 59.3685 98.3744 59.9999 98.3744C81.1621 98.3744 98.3744 81.1621 98.3744 59.9999ZM12.6808 59.9999C12.6808 60.6313 12.164 61.1481 11.5326 61.1481C10.9009 61.1481 10.3844 60.6313 10.3844 59.9999C10.3844 32.6371 32.6373 10.3841 60.0002 10.3841C60.6316 10.3841 61.1484 10.9009 61.1484 11.5323C61.1484 12.1638 60.6316 12.6805 60.0002 12.6805C33.9119 12.6808 12.6808 33.9116 12.6808 59.9999ZM21.6255 59.9999C21.6255 60.6313 21.1087 61.1481 20.4773 61.1481C19.8341 61.1481 19.3291 60.6313 19.3291 59.9999C19.3291 37.5747 37.5747 19.3291 59.9999 19.3291C60.6313 19.3291 61.1481 19.8344 61.1481 20.4773C61.1481 21.1089 60.6313 21.6255 59.9999 21.6255C38.8377 21.6255 21.6255 38.8377 21.6255 59.9999ZM43.9818 59.9999C43.9818 51.1698 51.1698 43.9818 59.9999 43.9818C68.83 43.9818 76.018 51.1698 76.018 59.9999C76.018 68.83 68.83 76.018 59.9999 76.018C51.1698 76.018 43.9818 68.83 43.9818 59.9999ZM59.9999 109.616C59.3685 109.616 58.8517 109.099 58.8517 108.468C58.8517 107.836 59.3685 107.319 59.9999 107.319C86.0882 107.319 107.319 86.0882 107.319 60.0002C107.319 59.3688 107.836 58.852 108.467 58.852C109.099 58.852 109.615 59.3688 109.615 60.0002C109.616 87.3625 87.3627 109.616 59.9999 109.616Z" fill="url(#paint0_linear_63_57)"/>
<path d="M67.0001 57.6667H62.3334V53.0001C62.3334 52.3812 62.0876 51.7878 61.65 51.3502C61.2124 50.9126 60.6189 50.6667 60.0001 50.6667C59.3812 50.6667 58.7878 50.9126 58.3502 51.3502C57.9126 51.7878 57.6667 52.3812 57.6667 53.0001L57.7496 57.6667H53.0001C52.3812 57.6667 51.7878 57.9126 51.3502 58.3502C50.9126 58.7878 50.6667 59.3812 50.6667 60.0001C50.6667 60.6189 50.9126 61.2124 51.3502 61.65C51.7878 62.0876 52.3812 62.3334 53.0001 62.3334L57.7496 62.2506L57.6667 67.0001C57.6667 67.6189 57.9126 68.2124 58.3502 68.65C58.7878 69.0876 59.3812 69.3334 60.0001 69.3334C60.6189 69.3334 61.2124 69.0876 61.65 68.65C62.0876 68.2124 62.3334 67.6189 62.3334 67.0001V62.2506L67.0001 62.3334C67.6189 62.3334 68.2124 62.0876 68.65 61.65C69.0876 61.2124 69.3334 60.6189 69.3334 60.0001C69.3334 59.3812 69.0876 58.7878 68.65 58.3502C68.2124 57.9126 67.6189 57.6667 67.0001 57.6667Z" fill="white"/>
<defs>
<linearGradient id="paint0_linear_63_57" x1="59.9999" y1="1.43945" x2="59.9999" y2="118.56" gradientUnits="userSpaceOnUse">
<stop stop-color="#97C7D9"/>
<stop offset="1" stop-color="#8357A2"/>
</linearGradient>
</defs>
</svg>
