<svg width="47" height="48" viewBox="0 0 47 48" fill="none" xmlns="http://www.w3.org/2000/svg">
<mask id="mask0_422_3568" style="mask-type:luminance" maskUnits="userSpaceOnUse" x="0" y="0" width="47" height="48">
<path d="M23.4738 2.33325L29.1645 6.48458L36.2094 6.47159L38.3728 13.1753L44.0798 17.3049L41.8904 23.9999L44.0798 30.6949L38.3728 34.8246L36.2094 41.5282L29.1645 41.5152L23.4738 45.6666L17.783 41.5152L10.7381 41.5282L8.57468 34.8246L2.86768 30.6949L5.05709 23.9999L2.86768 17.3049L8.57468 13.1753L10.7381 6.47159L17.783 6.48458L23.4738 2.33325Z" fill="white" stroke="white" stroke-width="4.33333" stroke-linecap="round" stroke-linejoin="round"/>
<path d="M15.8904 23.9997L21.307 29.4163L32.1404 18.583" stroke="black" stroke-width="4.33333" stroke-linecap="round" stroke-linejoin="round"/>
</mask>
<g mask="url(#mask0_422_3568)">
<path d="M-2.52637 -2.00024H49.4736V49.9998H-2.52637V-2.00024Z" fill="#15AC96"/>
</g>
</svg>
