<svg width="24" height="24" viewBox="0 0 24 24" fill="none" xmlns="http://www.w3.org/2000/svg">
<path d="M2.62061 10.1897C3.21625 8.12007 5.16332 6.88472 7.08057 7.24146L7.26611 7.28149C7.63052 7.36943 7.97743 7.51244 8.29541 7.70435C9.00398 8.13207 9.81734 8.40252 10.6763 8.40259H10.7397V8.85864H13.2603V8.40161C14.1129 8.39789 14.9197 8.12911 15.6235 7.70435C15.9411 7.51265 16.2877 7.36845 16.6519 7.28052C18.6286 6.8052 20.6836 8.05293 21.3003 10.1926L22.7583 15.26V15.261C23.03 16.211 22.9081 17.2301 22.4194 18.0891L22.4185 18.0901C21.9481 18.92 21.1596 19.5222 20.2349 19.7571H20.2339C18.6194 20.1709 16.8389 19.2599 16.1226 17.5833C15.8279 16.8741 15.3308 16.2676 14.6938 15.8391C14.0569 15.4109 13.3081 15.1797 12.5405 15.1741H11.5142C10.706 15.18 9.91723 15.4232 9.24658 15.8743C8.57606 16.325 8.05314 16.9636 7.74268 17.7092C7.33973 18.665 6.53691 19.3952 5.54736 19.7063C5.21922 19.8082 4.87752 19.8596 4.53369 19.8596C3.86699 19.8577 3.2142 19.6677 2.65186 19.3098L2.65088 19.3088L2.40869 19.1389C1.24298 18.2412 0.777178 16.5965 1.3335 14.6643L2.62061 10.1897ZM18.8394 9.76685C18.5467 9.76699 18.2645 9.869 18.0405 10.053L17.9487 10.137L17.6997 10.386L17.4507 10.137C17.1724 9.8587 16.7823 9.72795 16.3979 9.77759L16.2329 9.81079C15.8528 9.91293 15.5451 10.1852 15.396 10.5432L15.3423 10.7014C15.2259 11.136 15.3502 11.5999 15.6685 11.9182L15.9165 12.1672L15.6685 12.4163L15.6675 12.4172C15.3897 12.6958 15.26 13.086 15.3101 13.47L15.3433 13.634C15.4598 14.0685 15.7992 14.4083 16.2339 14.5247C16.668 14.6409 17.1314 14.5169 17.4497 14.1995L17.6997 13.9495L17.9487 14.1985C18.185 14.4352 18.5055 14.5682 18.8394 14.5686C19.174 14.5689 19.4954 14.436 19.7319 14.1995C19.9683 13.9629 20.1011 13.642 20.1011 13.3079L20.0942 13.1829C20.0653 12.8945 19.9369 12.6229 19.73 12.4163L19.481 12.1672L19.73 11.9182L19.731 11.9192C19.9672 11.6832 20.101 11.3623 20.1011 11.0276L20.0942 10.9036C20.0659 10.6148 19.9391 10.3431 19.7319 10.136C19.4954 9.89943 19.174 9.76651 18.8394 9.76685ZM11.8706 4.17505C11.9507 4.12873 12.0493 4.12873 12.1294 4.17505H12.1304C12.2105 4.22148 12.2601 4.30718 12.2603 4.39966V7.40259H11.7397V4.39966C11.7399 4.30716 11.7894 4.22149 11.8696 4.17505H11.8706ZM7.93701 10.6467C7.93624 10.1969 7.69566 9.7815 7.30615 9.55688C6.91668 9.33252 6.43677 9.33234 6.04736 9.55688C5.65762 9.7815 5.41728 10.1969 5.4165 10.6467V10.9075H5.15674C4.82274 10.907 4.50178 11.0393 4.26514 11.2756C4.02801 11.5121 3.89502 11.8338 3.89502 12.1682C3.89511 12.5022 4.02847 12.8226 4.26514 13.0588C4.50183 13.2955 4.82251 13.4275 5.15674 13.427V13.428H5.4165V13.6887C5.41718 14.1385 5.65763 14.5539 6.04736 14.7786C6.4369 15.0032 6.91658 15.0029 7.30615 14.7786C7.69568 14.5539 7.93633 14.1385 7.93701 13.6887V13.428H8.19775V13.427C8.49007 13.4271 8.7724 13.3267 8.99658 13.1428L9.08838 13.0588C9.32508 12.8224 9.45752 12.5012 9.45752 12.1672C9.45743 11.8754 9.35606 11.5936 9.17236 11.3694L9.08838 11.2766C8.85218 11.0403 8.53171 10.9074 8.19775 10.9075H7.93701V10.6467Z" fill="white" stroke="white"/>
</svg>
