<svg width="25" height="24" viewBox="0 0 25 24" fill="none" xmlns="http://www.w3.org/2000/svg">
<path d="M22.1667 8.52V3.98C22.1667 2.57 21.5267 2 19.9367 2H15.8967C14.3067 2 13.6667 2.57 13.6667 3.98V8.51C13.6667 9.93 14.3067 10.49 15.8967 10.49H19.9367C21.5267 10.5 22.1667 9.93 22.1667 8.52Z" fill="white"/>
<path d="M22.1667 19.77V15.73C22.1667 14.14 21.5267 13.5 19.9367 13.5H15.8967C14.3067 13.5 13.6667 14.14 13.6667 15.73V19.77C13.6667 21.36 14.3067 22 15.8967 22H19.9367C21.5267 22 22.1667 21.36 22.1667 19.77Z" fill="white"/>
<path d="M10.6667 8.52V3.98C10.6667 2.57 10.0267 2 8.43675 2H4.39675C2.80675 2 2.16675 2.57 2.16675 3.98V8.51C2.16675 9.93 2.80675 10.49 4.39675 10.49H8.43675C10.0267 10.5 10.6667 9.93 10.6667 8.52Z" fill="white"/>
<path d="M10.6667 19.77V15.73C10.6667 14.14 10.0267 13.5 8.43675 13.5H4.39675C2.80675 13.5 2.16675 14.14 2.16675 15.73V19.77C2.16675 21.36 2.80675 22 4.39675 22H8.43675C10.0267 22 10.6667 21.36 10.6667 19.77Z" fill="white"/>
</svg>
