<svg width="36" height="36" viewBox="0 0 36 36" fill="none" xmlns="http://www.w3.org/2000/svg">
<path d="M28.1416 19.827C28.7445 13.8023 24.0854 12.2396 24.0854 12.2396C18.8038 10.2524 15.8581 14.4476 15.8581 14.4476C15.8581 14.4476 12.7908 12.643 9.64136 15.4506C9.64136 15.4506 7.78103 16.8283 7.72998 19.8567C5.25589 20.6704 3.63048 23.0335 3.79797 25.6967C3.98767 28.7227 6.59043 31.0932 9.72334 31.0932H26.2772C29.3736 31.0932 31.9659 28.7442 32.1786 25.7453C32.3709 23.0293 30.6729 20.6062 28.1416 19.827ZM15.1115 25.528C14.4247 25.7385 14.2 25.1304 14.2 25.1304C14.1488 25 14.0257 24.9157 13.8864 24.9157C13.7471 24.9157 13.624 25 13.5728 25.1304C13.4308 25.4919 13.0228 25.6698 12.6613 25.528C12.2998 25.386 12.1218 24.978 12.2638 24.6165C12.5278 23.944 13.1647 23.5093 13.8864 23.5093C14.6081 23.5093 15.223 23.9447 15.509 24.6165C15.6574 24.965 15.4827 25.4141 15.1115 25.528ZM18.7204 26.725H17.279C16.8906 26.725 16.5759 26.4102 16.5759 26.0218C16.5759 25.6335 16.8906 25.3187 17.279 25.3187H18.7204C19.1087 25.3187 19.4235 25.6335 19.4235 26.0218C19.4235 26.4102 19.1087 26.725 18.7204 26.725ZM23.3379 25.528C22.9765 25.6699 22.5684 25.4919 22.4265 25.1303C22.3754 25 22.2523 24.9157 22.1131 24.9157C21.9737 24.9157 21.8608 25.0045 21.7994 25.1304C21.4845 25.7759 20.888 25.528 20.888 25.528C20.5264 25.386 20.3484 24.978 20.4904 24.6165C20.7544 23.944 21.3913 23.5093 22.1131 23.5093C22.8348 23.5093 23.4717 23.944 23.7356 24.6166C23.8775 24.9781 23.6994 25.3861 23.3379 25.528ZM25.0191 18.1456C24.2663 18.1935 24.2255 17.5464 24.2255 17.5464C24.0517 16.3015 23.0638 15.3127 21.823 15.1418C21.4382 15.0889 21.1694 14.7341 21.2224 14.3493C21.2753 13.9646 21.6298 13.6959 22.0149 13.7487C23.8761 14.0051 25.3579 15.4868 25.6183 17.352C25.672 17.7366 25.4067 18.1209 25.0191 18.1456ZM3.81273 17.2506C3.69531 15.3824 4.79851 13.7188 6.49937 13.086C6.46 11.125 7.99421 9.96555 7.99421 9.96555C10.0122 8.22391 12.2123 9.27226 12.2123 9.27226C15.917 5.43109 19.4087 8.75125 19.4087 8.75125C20.0041 9.23303 20.3793 9.79187 20.6147 10.3296C18.126 10.5437 16.3862 11.8631 15.4664 12.7715C14.945 12.6106 14.2651 12.4704 13.478 12.4704C11.7834 12.4704 10.1435 13.1293 8.73292 14.3765C8.36504 14.6763 6.74835 16.1357 6.39222 18.886C5.875 19.1386 5.39047 19.4533 4.9494 19.8198C4.29648 19.1387 3.87503 18.2437 3.81273 17.2506ZM20.3312 7.68904C20.1764 7.54834 19.7425 7.17962 19.0923 6.82363C19.8805 6.33166 20.6587 6.23462 20.713 6.22851C20.7152 6.22851 20.718 6.2278 20.7201 6.2278C21.2841 6.16944 21.8515 6.24327 22.3753 6.44085C22.3753 6.44085 24.5065 3.96163 27.423 5.28562C27.423 5.28562 30.1708 6.34663 29.9036 9.71249C29.9036 9.71249 33.5739 11.0744 31.6839 15.1631C31.2572 16.0861 30.4892 16.7863 29.4864 17.2385C29.165 15.1429 28.2218 13.7112 27.3579 12.8043C26.1279 11.513 24.8192 11.0073 24.5634 10.9171C23.7557 10.6147 22.9491 10.4227 22.1554 10.3425L21.9029 9.76579C21.5472 8.95319 21.0186 8.25477 20.3312 7.68904Z" fill="white"/>
</svg>
