<svg width="16" height="16" viewBox="0 0 16 16" fill="none" xmlns="http://www.w3.org/2000/svg">
<path d="M10.4747 11.182L4.81783 5.52514C4.62456 5.33186 4.62456 5.01131 4.81783 4.81803C5.01111 4.62476 5.33166 4.62476 5.52494 4.81803L11.1818 10.4749C11.3751 10.6682 11.3751 10.9887 11.1818 11.182C10.9885 11.3753 10.668 11.3753 10.4747 11.182Z" fill="white"/>
<path d="M4.81821 11.182C4.62493 10.9887 4.62493 10.6682 4.81821 10.4749L10.4751 4.81803C10.6683 4.62476 10.9889 4.62476 11.1822 4.81803C11.3754 5.01131 11.3754 5.33186 11.1822 5.52514L5.52531 11.182C5.33204 11.3753 5.01148 11.3753 4.81821 11.182Z" fill="white"/>
</svg>
