<svg width="24" height="24" viewBox="0 0 24 24" fill="none" xmlns="http://www.w3.org/2000/svg">
<path d="M12.675 12L10.3 14.375C10.1167 14.5583 10.025 14.7877 10.025 15.063C10.025 15.3383 10.1167 15.5757 10.3 15.775C10.5 15.975 10.7377 16.075 11.013 16.075C11.2883 16.075 11.5257 15.975 11.725 15.775L14.8 12.7C15 12.5 15.1 12.2667 15.1 12C15.1 11.7333 15 11.5 14.8 11.3L11.7 8.2C11.5 8 11.2667 7.90433 11 7.913C10.7333 7.92167 10.5 8.02567 10.3 8.225C10.1167 8.425 10.0207 8.65833 10.012 8.925C10.0033 9.19167 10.0993 9.425 10.3 9.625L12.675 12ZM12 22C10.6167 22 9.31667 21.7373 8.1 21.212C6.88334 20.6867 5.825 19.9743 4.925 19.075C4.025 18.1757 3.31267 17.1173 2.788 15.9C2.26333 14.6827 2.00067 13.3827 2 12C1.99933 10.6173 2.262 9.31733 2.788 8.1C3.314 6.88267 4.02633 5.82433 4.925 4.925C5.82367 4.02567 6.882 3.31333 8.1 2.788C9.318 2.26267 10.618 2 12 2C13.382 2 14.682 2.26267 15.9 2.788C17.118 3.31333 18.1763 4.02567 19.075 4.925C19.9737 5.82433 20.6863 6.88267 21.213 8.1C21.7397 9.31733 22.002 10.6173 22 12C21.998 13.3827 21.7353 14.6827 21.212 15.9C20.6887 17.1173 19.9763 18.1757 19.075 19.075C18.1737 19.9743 17.1153 20.687 15.9 21.213C14.6847 21.739 13.3847 22.0013 12 22Z" fill="white"/>
</svg>
