<svg width="36" height="36" viewBox="0 0 36 36" fill="none" xmlns="http://www.w3.org/2000/svg">
<g clip-path="url(#clip0_101_5232)">
<path d="M32.0418 5.78309C32.0418 4.55486 31.8681 3.3702 31.572 2.2348C31.5366 2.2348 31.5025 2.22975 31.4671 2.22975C28.3786 2.22975 25.53 3.23444 23.2137 4.92554C23.0552 2.17923 20.785 0 18.0002 0C15.2154 0 12.9452 2.17923 12.7874 4.92491C10.4705 3.2338 7.62185 2.22912 4.53329 2.22912C4.49792 2.22912 4.46382 2.23417 4.42846 2.23417C4.13166 3.3702 3.95801 4.55486 3.95801 5.78309C3.95801 13.0041 9.40957 18.9463 16.4215 19.7312V23.001C15.1516 21.6313 13.3405 20.7719 11.3255 20.7719C11.3078 20.7719 11.2907 20.7744 11.2737 20.7744C11.1272 21.3371 11.0407 21.9243 11.0407 22.5331C11.0407 25.8332 13.3399 28.5896 16.4215 29.3051V34.4219C16.4215 35.294 17.1281 36.0006 18.0002 36.0006C18.8723 36.0006 19.5789 35.294 19.5789 34.4219V29.3051C22.6605 28.5896 24.9597 25.8332 24.9597 22.5331C24.9597 21.9243 24.8739 21.3371 24.7267 20.7744C24.709 20.7744 24.692 20.7719 24.6749 20.7719C22.6599 20.7719 20.8488 21.6313 19.5789 23.001V19.7318C26.5902 18.9463 32.0418 13.0041 32.0418 5.78309Z" fill="white"/>
</g>
<defs>
<clipPath id="clip0_101_5232">
<rect width="36" height="36" fill="white"/>
</clipPath>
</defs>
</svg>
