<svg width="36" height="36" viewBox="0 0 36 36" fill="none" xmlns="http://www.w3.org/2000/svg">
<path d="M33.9867 14.2884L32.4484 13.7754L32.9614 12.2372C33.0259 12.0429 33.0087 11.8307 32.9134 11.6499C32.8182 11.4692 32.6524 11.3349 32.4559 11.2787C29.5272 10.3599 26.3862 10.4192 23.5332 11.4849C24.0559 8.03415 23.0802 4.4739 20.8264 1.7694C20.5819 1.47465 20.1537 1.41315 19.8342 1.6254L17.9997 2.84865L16.1659 1.62615C15.8479 1.4139 15.4189 1.4754 15.1737 1.77015C12.9199 4.47465 11.9442 8.03415 12.4669 11.4857C9.74745 10.4769 6.7752 10.3562 3.95595 11.1617L3.54345 11.2794C3.14295 11.3859 2.8977 11.8464 3.03795 12.2379L3.55095 13.7762L2.0127 14.2892C1.80645 14.3582 1.63995 14.5127 1.55745 14.7137C1.3452 15.0932 1.73145 15.5957 1.87545 15.9279C3.47295 19.1222 6.37245 21.4119 9.7932 22.2444C7.82145 24.6557 6.7497 27.6474 6.7497 30.8034V32.2502C6.7392 32.7227 7.22445 33.1044 7.68195 32.9777L10.1689 32.3559L11.3757 34.1664C11.5977 34.5129 12.1039 34.6074 12.4354 34.3607L13.9729 33.2627C15.7872 31.9667 17.1672 30.2244 17.9997 28.2137C18.8322 30.2244 20.2114 31.9667 22.0264 33.2627L23.5639 34.3607C23.8947 34.6059 24.4024 34.5137 24.6237 34.1664L25.8304 32.3559L28.3174 32.9777C28.7727 33.1029 29.2624 32.7242 29.2497 32.2502C29.4462 28.6427 28.5402 25.0142 26.2069 22.2444C29.6284 21.4119 32.5272 19.1222 34.1247 15.9279L34.4209 15.3362C34.6264 14.9447 34.4119 14.4189 33.9867 14.2884Z" fill="white"/>
<path d="M25.482 16.3376C25.392 15.9333 24.9915 15.6791 24.5872 15.7683L18.75 17.0651V11.2503C18.747 10.2746 17.2545 10.2656 17.25 11.2503V17.0651L11.4127 15.7683C10.4595 15.5606 10.1272 17.0148 11.0872 17.2323L16.8015 18.5021L13.6132 23.6028C13.3942 23.9538 13.5007 24.4166 13.8517 24.6363C14.202 24.8553 14.6655 24.7488 14.8852 24.3978L18 19.4156L21.114 24.3978C21.639 25.2258 22.9027 24.4376 22.386 23.6028L19.1977 18.5021L24.912 17.2323C25.317 17.1423 25.572 16.7418 25.482 16.3376Z" fill="#FFD7D7"/>
</svg>
