<svg width="22" height="30" viewBox="0 0 22 30" fill="none" xmlns="http://www.w3.org/2000/svg">
<path d="M7.76001 0C7.13906 0 6.5823 0.382605 6.3597 0.96228L0.599702 15.9623C0.422597 16.4235 0.483947 16.9423 0.763772 17.3496C1.04358 17.7567 1.50596 18 2.00001 18H8.5058L4.90868 27.992C4.6578 28.6889 4.95309 29.4644 5.60388 29.8181C6.25466 30.1716 7.0661 29.9973 7.51425 29.4077L21.1943 11.4076C21.5391 10.9539 21.597 10.344 21.3438 9.83346C21.0905 9.32294 20.5698 9 20 9H13.9191L17.7087 2.2329C17.9688 1.7684 17.9633 1.20081 17.694 0.741495C17.4249 0.282195 16.9323 0 16.4 0H7.76001Z" fill="white" fill-opacity="0.7"/>
</svg>
