<svg width="36" height="36" viewBox="0 0 36 36" fill="none" xmlns="http://www.w3.org/2000/svg">
<g clip-path="url(#clip0_103_5515)">
<path d="M32.9343 34.9395L32.0073 28.4415C31.6518 25.9545 31.4718 23.421 31.4718 20.91V13.935C31.4718 6.59397 25.9413 0.484468 18.8808 0.0269683C11.0658 -0.466532 4.49883 5.75697 4.49883 13.4985V20.91C4.49883 23.421 4.31883 25.9545 3.96333 28.4415L3.00783 35.142C2.97633 35.358 3.04083 35.5755 3.18333 35.7405C3.32583 35.904 3.53283 35.9985 3.75033 35.9985C4.91433 35.9985 5.52333 35.4855 6.01383 35.073C6.42483 34.728 6.69783 34.4985 7.31583 34.4985C7.93383 34.4985 8.20533 34.7265 8.61633 35.073C9.10533 35.4855 9.71583 35.9985 10.8798 35.9985C12.0438 35.9985 12.6528 35.4855 13.1433 35.0715C13.5528 34.7265 13.8243 34.4985 14.4393 34.4985C15.0543 34.4985 15.3258 34.7265 15.7353 35.0715C16.2258 35.484 16.8348 35.9985 17.9973 35.9985C19.1613 35.9985 19.7688 35.4855 20.2593 35.0715C20.6688 34.7265 20.9403 34.4985 21.5553 34.4985C22.1718 34.4985 22.4403 34.7265 22.8498 35.0715C23.3388 35.484 23.9478 35.9985 25.1088 35.9985C26.2713 35.9985 26.8788 35.484 27.3663 35.0715C27.7743 34.7265 28.0458 34.4985 28.6578 34.4985C29.2728 34.4985 29.5428 34.7265 29.9523 35.0715C30.4428 35.484 31.0518 35.9985 32.2143 35.9985C32.2263 36 32.2383 36 32.2428 35.9985C32.6568 35.9985 32.9928 35.6625 32.9928 35.2485C33.0003 35.139 32.9763 35.034 32.9343 34.9395ZM13.4898 16.4985C12.3843 16.4985 11.9913 14.949 11.9913 13.4985C11.9913 12.048 12.3843 10.4985 13.4898 10.4985C14.5938 10.4985 14.9883 12.048 14.9883 13.4985C14.9883 14.949 14.5953 16.4985 13.4898 16.4985ZM22.4808 16.4985C21.3753 16.4985 20.9823 14.949 20.9823 13.4985C20.9823 12.048 21.3753 10.4985 22.4808 10.4985C23.5848 10.4985 23.9793 12.048 23.9793 13.4985C23.9793 14.949 23.5863 16.4985 22.4808 16.4985Z" fill="white"/>
</g>
<defs>
<clipPath id="clip0_103_5515">
<rect width="36" height="36" fill="white"/>
</clipPath>
</defs>
</svg>
