<svg width="24" height="24" viewBox="0 0 24 24" fill="none" xmlns="http://www.w3.org/2000/svg">
<path d="M2.12795 15.733C1.67173 12.7675 1.2155 9.80203 0.75928 6.83653C0.658105 6.17915 1.40608 5.7308 1.93813 6.12988C3.35953 7.19593 4.78086 8.2619 6.20226 9.32795C6.67026 9.67895 7.337 9.56473 7.66145 9.07798L11.2114 3.75298C11.5866 3.19025 12.4134 3.19025 12.7885 3.75298L16.3385 9.07798C16.663 9.56473 17.3297 9.67888 17.7977 9.32795C19.2191 8.2619 20.6404 7.19593 22.0618 6.12988C22.5939 5.7308 23.3419 6.17915 23.2408 6.83653C22.7845 9.80203 22.3283 12.7675 21.8721 15.733H2.12795Z" fill="#FFB743"/>
<path d="M20.8426 20.6689H3.1573C2.5888 20.6689 2.12793 20.208 2.12793 19.6395V17.3783H21.8721V19.6395C21.872 20.208 21.4111 20.6689 20.8426 20.6689Z" fill="#FFB743"/>
</svg>
