<svg width="20" height="20" viewBox="0 0 20 20" fill="none" xmlns="http://www.w3.org/2000/svg">
<path fill-rule="evenodd" clip-rule="evenodd" d="M13.582 13.1237L16.1602 8.84631C15.8906 7.22913 15.6875 6.13147 15.5586 5.45959C15.957 5.37756 16.2578 5.026 16.2578 4.60413C16.2578 4.11975 15.8672 3.72913 15.3828 3.72913C14.8984 3.72913 14.5078 4.11975 14.5078 4.60413C14.5078 4.86194 14.6172 5.0885 14.793 5.25256C13.6875 6.4635 12.4453 7.81506 11.7227 8.62366L11.5312 11.1588L13.582 13.1237Z" fill="#FEE45A"/>
<path fill-rule="evenodd" clip-rule="evenodd" d="M9.04688 12.385L7.94531 8.28735C7.22656 7.47876 6.3125 6.46313 5.21094 5.24829C5.38672 5.08813 5.49609 4.85767 5.49609 4.59985C5.49609 4.11548 5.10547 3.72485 4.62109 3.72485C4.13672 3.72485 3.74609 4.11548 3.74609 4.59985C3.74609 5.02563 4.04688 5.3772 4.44531 5.45532C4.31641 6.1272 4.11328 7.22485 3.83984 8.84204L4.5625 11.3655L9.04688 12.385Z" fill="#FEE45A"/>
<path fill-rule="evenodd" clip-rule="evenodd" d="M6.10547 15.8776L6.8125 11.0886C5.65234 10.2214 4.30078 9.19794 1.57031 7.12762C1.67969 6.97919 1.74609 6.7995 1.74609 6.60028C1.74609 6.11591 1.35547 5.72528 0.871094 5.72528C0.390625 5.72528 0 6.11591 0 6.60028C0 7.08466 0.390625 7.47528 0.875 7.47528C0.9375 7.47528 1 7.46747 1.05859 7.45575C1.33203 8.72137 1.90625 11.3503 2.71875 15.0534L6.10547 15.8776Z" fill="#FED402"/>
<path fill-rule="evenodd" clip-rule="evenodd" d="M14.4219 15.9518L17.2813 15.0534C18.0938 11.3542 18.668 8.72137 18.9414 7.45575C19 7.46747 19.0625 7.47528 19.1289 7.47528C19.6133 7.47528 20.0039 7.08466 20.0039 6.60028C20.0039 6.11591 19.6133 5.72528 19.1289 5.72528C18.6445 5.72528 18.2539 6.11591 18.2539 6.60028C18.2539 6.7995 18.3203 6.98309 18.4297 7.12762C15.6992 9.19794 14.3477 10.2214 13.1875 11.0886L11.5547 12.8659L14.4219 15.9518Z" fill="#FED402"/>
<path fill-rule="evenodd" clip-rule="evenodd" d="M5.22656 15.0496H14.7734C12.668 9.78003 11.1875 6.1394 10.4531 4.34253L11.5664 3.22925L10 1.66675L8.43359 3.23315L9.54687 4.34644C8.8125 6.1394 7.33203 9.78003 5.22656 15.0496Z" fill="#FEE45A"/>
<path fill-rule="evenodd" clip-rule="evenodd" d="M8.08203 15.0493H11.9141H17.2773V18.2603H2.72266V15.0493H8.08203Z" fill="#FE9901"/>
<path fill-rule="evenodd" clip-rule="evenodd" d="M10 12.3894L8.08203 13.5105V16.5886L10 17.7097L11.918 16.5886V13.5105L10 12.3894Z" fill="#FF7E3D"/>
<path fill-rule="evenodd" clip-rule="evenodd" d="M11.918 13.5105L10 12.3894V13.2175L11.168 13.9011L11.918 13.5105Z" fill="#E94E1F"/>
<path fill-rule="evenodd" clip-rule="evenodd" d="M10 13.217L8.80859 13.9124V16.1858L10 16.8811L11.1914 16.1858V13.9124L10 13.217Z" fill="#FF9831"/>
<path fill-rule="evenodd" clip-rule="evenodd" d="M10 16.8811L11.1914 16.1858V13.9124L10 13.217V16.8811Z" fill="#FE8E1D"/>
<path fill-rule="evenodd" clip-rule="evenodd" d="M8.08203 13.5105L10 12.3894V13.2175L8.83203 13.9011L8.08203 13.5105Z" fill="#E03F3F"/>
<path fill-rule="evenodd" clip-rule="evenodd" d="M11.918 16.5884L10 17.7095V16.8813L11.168 16.2017L11.918 16.5884Z" fill="#CC3232"/>
<path fill-rule="evenodd" clip-rule="evenodd" d="M8.08203 16.5884L10 17.7095V16.8813L8.83203 16.2017L8.08203 16.5884Z" fill="#E94E1F"/>
</svg>
