<svg width="16" height="16" viewBox="0 0 16 16" fill="none" xmlns="http://www.w3.org/2000/svg">
<path d="M7.99975 11.5669C8.5999 11.5669 9.08642 11.0804 9.08642 10.4802C9.08642 9.88007 8.5999 9.39355 7.99975 9.39355C7.3996 9.39355 6.91309 9.88007 6.91309 10.4802C6.91309 11.0804 7.3996 11.5669 7.99975 11.5669Z" fill="white"/>
<path d="M12.1863 6.3535V5.52016C12.1863 3.72016 11.753 1.3335 7.99968 1.3335C4.24634 1.3335 3.81301 3.72016 3.81301 5.52016V6.3535C1.94634 6.58683 1.33301 7.5335 1.33301 9.86016V11.1002C1.33301 13.8335 2.16634 14.6668 4.89967 14.6668H11.0997C13.833 14.6668 14.6663 13.8335 14.6663 11.1002V9.86016C14.6663 7.5335 14.053 6.58683 12.1863 6.3535ZM7.99968 12.4935C6.88634 12.4935 5.98634 11.5868 5.98634 10.4802C5.98634 9.36683 6.89301 8.46683 7.99968 8.46683C9.10634 8.46683 10.013 9.3735 10.013 10.4802C10.013 11.5935 9.11301 12.4935 7.99968 12.4935ZM4.89967 6.2935C4.84634 6.2935 4.79967 6.2935 4.74634 6.2935V5.52016C4.74634 3.56683 5.29967 2.26683 7.99968 2.26683C10.6997 2.26683 11.253 3.56683 11.253 5.52016V6.30016C11.1997 6.30016 11.153 6.30016 11.0997 6.30016H4.89967V6.2935Z" fill="white"/>
</svg>
