<svg width="44" height="44" viewBox="0 0 44 44" fill="none" xmlns="http://www.w3.org/2000/svg">
<circle cx="22" cy="22" r="22" fill="white" fill-opacity="0.1"/>
<path d="M22 0C16.9102 -6.06954e-08 11.9778 1.76482 8.04335 4.99377C4.10887 8.22271 1.4157 12.716 0.422724 17.708C-0.57025 22.7 0.198409 27.8819 2.59773 32.3707C4.99705 36.8595 8.87859 40.3776 13.581 42.3253C18.2833 44.2731 23.5156 44.5302 28.3863 43.0527C33.2569 41.5752 37.4646 38.4546 40.2923 34.2225C43.1201 29.9905 44.393 24.9089 43.8941 19.8436C43.3952 14.7783 41.1554 10.0427 37.5564 6.44365L22 22L22 0Z" fill="white" fill-opacity="0.8"/>
</svg>
