<svg width="67" height="78" viewBox="0 0 67 78" fill="none" xmlns="http://www.w3.org/2000/svg">
<g filter="url(#filter0_d_163_520)">
<path d="M20.3333 61.5C19.1417 61.5 18.1219 61.0761 17.274 60.2282C16.4261 59.3803 16.0014 58.3598 16 57.1667V35.5C16 34.3083 16.4247 33.2886 17.274 32.4407C18.1233 31.5928 19.1431 31.1681 20.3333 31.1667H22.5V26.8333C22.5 23.8361 23.5566 21.2816 25.6698 19.1698C27.7831 17.0581 30.3376 16.0014 33.3333 16C36.3291 15.9986 38.8843 17.0552 40.999 19.1698C43.1137 21.2845 44.1696 23.839 44.1667 26.8333V31.1667H46.3333C47.525 31.1667 48.5455 31.5913 49.3948 32.4407C50.2442 33.29 50.6681 34.3098 50.6667 35.5V57.1667C50.6667 58.3583 50.2427 59.3788 49.3948 60.2282C48.5469 61.0775 47.5264 61.5014 46.3333 61.5H20.3333ZM33.3333 50.6667C34.525 50.6667 35.5455 50.2427 36.3948 49.3948C37.2442 48.5469 37.6681 47.5264 37.6667 46.3333C37.6652 45.1402 37.2413 44.1204 36.3948 43.274C35.5484 42.4276 34.5279 42.0029 33.3333 42C32.1388 41.9971 31.119 42.4218 30.274 43.274C29.429 44.1262 29.0043 45.146 29 46.3333C28.9957 47.5207 29.4203 48.5412 30.274 49.3948C31.1277 50.2485 32.1474 50.6724 33.3333 50.6667ZM26.8333 31.1667H39.8333V26.8333C39.8333 25.0278 39.2014 23.4931 37.9375 22.2292C36.6736 20.9653 35.1389 20.3333 33.3333 20.3333C31.5278 20.3333 29.9931 20.9653 28.7292 22.2292C27.4653 23.4931 26.8333 25.0278 26.8333 26.8333V31.1667Z" fill="white"/>
</g>
<defs>
<filter id="filter0_d_163_520" x="0" y="0" width="66.6667" height="77.5" filterUnits="userSpaceOnUse" color-interpolation-filters="sRGB">
<feFlood flood-opacity="0" result="BackgroundImageFix"/>
<feColorMatrix in="SourceAlpha" type="matrix" values="0 0 0 0 0 0 0 0 0 0 0 0 0 0 0 0 0 0 127 0" result="hardAlpha"/>
<feOffset/>
<feGaussianBlur stdDeviation="8"/>
<feComposite in2="hardAlpha" operator="out"/>
<feColorMatrix type="matrix" values="0 0 0 0 0 0 0 0 0 0 0 0 0 0 0 0 0 0 0.3 0"/>
<feBlend mode="normal" in2="BackgroundImageFix" result="effect1_dropShadow_163_520"/>
<feBlend mode="normal" in="SourceGraphic" in2="effect1_dropShadow_163_520" result="shape"/>
</filter>
</defs>
</svg>
