<svg width="36" height="36" viewBox="0 0 36 36" fill="none" xmlns="http://www.w3.org/2000/svg">
<path d="M20.1439 28.4328C19.6594 26.5173 17.6854 25.2798 15.1159 25.2798C14.4679 25.2798 13.8079 25.3608 13.1569 25.5198C11.2774 25.9818 9.66645 27.0678 8.84895 28.4283C8.28345 29.3703 8.11245 30.3783 8.35845 31.3428C8.84295 33.2568 10.8169 34.4958 13.3879 34.4958C14.0359 34.4958 14.6944 34.4148 15.3454 34.2558C17.2249 33.7938 18.8359 32.7078 19.6535 31.3473C20.219 30.4053 20.3884 29.3973 20.1439 28.4328Z" fill="white"/>
<path d="M18.75 30.7546C17.922 30.7546 17.25 30.0841 17.25 29.2546V6.00457C17.25 5.39107 17.6235 4.84057 18.192 4.61107L25.692 1.61107C26.4645 1.30357 27.3345 1.67707 27.642 2.44807C27.9495 3.21757 27.576 4.09057 26.8065 4.39807L20.25 7.01857V29.2531C20.25 30.0826 19.5795 30.7546 18.75 30.7546Z" fill="white"/>
<path d="M18.7522 14.2472C18.1567 14.2472 17.5942 13.8917 17.3587 13.3037C17.0512 12.5342 17.4247 11.6612 18.1942 11.3537L25.6942 8.35375C26.4667 8.04625 27.3367 8.41975 27.6442 9.19075C27.9517 9.96025 27.5782 10.8332 26.8087 11.1407L19.3087 14.1407C19.1257 14.2127 18.9367 14.2472 18.7522 14.2472Z" fill="white"/>
</svg>
