<svg width="24" height="24" viewBox="0 0 24 24" fill="none" xmlns="http://www.w3.org/2000/svg">
<path d="M20.375 3C20.03 3 19.75 3.28 19.75 3.625V20.375C19.75 20.5408 19.8158 20.6997 19.9331 20.8169C20.0503 20.9342 20.2092 21 20.375 21C20.5408 21 20.6997 20.9342 20.8169 20.8169C20.9342 20.6997 21 20.5408 21 20.375V3.625C21 3.28 20.72 3 20.375 3ZM3 4.628C3 3.3205 4.4655 2.548 5.544 3.288L16.296 10.6595C17.2375 11.3045 17.2375 12.6945 16.296 13.3395L5.544 20.712C4.465 21.45 3 20.6785 3 19.3715V4.628Z" fill="white"/>
</svg>
