<svg width="49" height="49" viewBox="0 0 49 49" fill="none" xmlns="http://www.w3.org/2000/svg">
<path d="M48.1403 0.835693V35.8339C48.1399 37.7416 47.51 39.5959 46.3483 41.1092C45.1867 42.6225 43.5582 43.7102 41.7153 44.2037C39.8725 44.6971 37.9184 44.5687 36.1559 43.8384C34.3935 43.1081 32.9213 41.8167 31.9676 40.1644C31.0139 38.5121 30.632 36.5914 30.8812 34.7C31.1304 32.8086 31.9967 31.0522 33.3457 29.7033C34.6948 28.3544 36.4512 27.4883 38.3427 27.2394C40.2341 26.9904 42.1548 27.3725 43.807 28.3264V5.83203L17.807 9.54569V40.1672C17.8066 42.0749 17.1767 43.9292 16.015 45.4425C14.8533 46.9558 13.2248 48.0435 11.382 48.537C9.53918 49.0304 7.58502 48.9021 5.8226 48.1717C4.06017 47.4414 2.58796 46.15 1.63427 44.4977C0.680584 42.8455 0.298715 40.9247 0.547885 39.0333C0.797055 37.1419 1.66334 35.3855 3.0124 34.0366C4.36145 32.6877 6.11789 31.8217 8.00933 31.5727C9.90076 31.3237 11.8215 31.7058 13.4736 32.6597V5.78869L48.1403 0.835693Z" fill="#66C4F0"/>
</svg>
