<svg width="38" height="36" viewBox="0 0 38 36" fill="none" xmlns="http://www.w3.org/2000/svg">
<g clip-path="url(#clip0_101_5100)">
<path d="M13.5586 3.41207C15.0778 -1.74939 24.798 -0.881994 24.5726 4.83985C21.9409 6.43867 21.2099 10.581 20.2878 13.39C20.2543 13.0243 19.8379 9.63131 18.2101 8.76963C18.1141 8.71882 18.0004 9.04016 17.9178 9.37939C17.7497 10.0693 17.7118 10.7828 17.7914 11.4871L18.1312 14.5122C17.8553 14.5988 17.5958 14.7291 17.3631 14.8958C14.9135 12.1934 12.8863 8.70522 13.3452 5.03308C13.3913 4.31168 13.4627 3.76561 13.5586 3.41207ZM3.27852 13.2047C0.0325268 8.84334 6.79816 2.07089 11.3061 5.80744C10.9648 8.78466 13.8739 11.9172 15.5806 14.3626C15.2623 14.1594 12.2468 12.3573 10.532 13.0451C10.4308 13.0859 10.6212 13.3714 10.8451 13.6448C11.3009 14.2016 11.8571 14.6747 12.4788 15.0547L15.1485 16.685C15.0474 16.9462 14.9908 17.2232 14.9804 17.5023C11.2578 17.6605 7.15957 17.0114 4.46313 14.3762C3.9054 13.8917 3.50681 13.4974 3.27926 13.2047H3.27852ZM4.82454 27.0452C-0.742346 26.7689 -2.02661 17.4551 3.81988 16.393C6.02552 18.5064 10.384 18.271 13.4351 18.5107C13.0715 18.6238 9.7281 19.7689 9.21722 21.4879C9.18748 21.5888 9.53848 21.6246 9.89989 21.6268C10.6361 21.6311 11.3671 21.508 12.0631 21.2768L15.0518 20.2849C15.2013 20.5239 15.3909 20.7393 15.611 20.9204C13.4188 23.8196 10.3364 26.4984 6.51409 26.8849C5.77268 27.0022 5.2038 27.0566 4.8238 27.0452H4.82454ZM17.0321 34.5111C13.3362 38.5275 4.9703 33.6867 7.75225 28.6254C10.8443 28.2833 13.3705 24.8566 15.4675 22.711C15.3329 23.0545 14.178 26.2851 15.2563 27.7415C15.3195 27.8274 15.5672 27.5855 15.7947 27.3143C16.2573 26.7625 16.6127 26.1355 16.8589 25.4678L17.9163 22.6001C18.2034 22.6373 18.4971 22.628 18.7812 22.5758C19.7695 26.0332 20.0238 30.0231 17.955 33.1392C17.5884 33.7704 17.2775 34.232 17.0314 34.5104L17.0321 34.5111ZM30.7084 29.9809C31.667 35.2654 22.518 38.5425 20.1413 33.2937C21.7914 30.7538 20.5823 26.7167 20.1472 23.801C20.3428 24.1166 22.2465 26.9994 24.1019 27.096C24.2112 27.1017 24.1688 26.7646 24.0908 26.4247C23.9309 25.7326 23.6438 25.0742 23.2549 24.4723L21.5847 21.8887C21.7937 21.6955 21.9692 21.4693 22.1045 21.2224C25.5297 22.6344 28.9289 24.9303 30.1708 28.4307C30.4548 29.0999 30.6363 29.6216 30.7092 29.9809H30.7084ZM35.5555 16.8654C40.4464 19.4389 37.4042 28.3663 31.658 26.882C30.6236 24.0572 26.5901 22.4491 23.9502 20.959C24.3287 21.0091 27.858 21.3734 29.0932 20.038C29.1661 19.9592 28.8657 19.781 28.5407 19.6279C27.8789 19.3166 27.165 19.1226 26.4332 19.0403L23.2928 18.6861C23.2661 18.4084 23.1917 18.135 23.0757 17.8795C26.3581 16.1826 30.3433 15.0561 33.9604 16.3043C34.6809 16.5075 35.2178 16.6965 35.5555 16.8654ZM27.9227 5.04095C33.0628 2.96549 38.4185 10.8208 33.6302 14.2188C30.6906 13.2362 26.8697 15.268 24.0127 16.3258C24.2893 16.0724 26.7857 13.6441 26.4712 11.8821C26.4526 11.7783 26.1202 11.8928 25.7937 12.0424C25.1281 12.3466 24.5251 12.7624 24.0023 13.2612L21.7565 15.4032C21.5141 15.2501 21.2463 15.1356 20.966 15.064C21.6345 11.5364 23.2036 7.83567 26.4726 5.89189C27.0876 5.47608 27.5755 5.19053 27.9227 5.04167V5.04095ZM18.9827 16.0173C17.5125 16.0173 16.3205 17.1645 16.3205 18.5794C16.3205 19.9943 17.5125 21.1415 18.9827 21.1415C20.4529 21.1415 21.6449 19.9943 21.6449 18.5794C21.6449 17.1645 20.4529 16.0173 18.9827 16.0173Z" fill="white"/>
</g>
<defs>
<clipPath id="clip0_101_5100">
<rect width="38" height="36" fill="white"/>
</clipPath>
</defs>
</svg>
