<svg width="24" height="24" viewBox="0 0 24 24" fill="none" xmlns="http://www.w3.org/2000/svg">
<path d="M18.4776 7.64181L15.013 7.13836L13.4635 3.9989C12.8653 2.78657 11.1348 2.78612 10.5363 3.99886L8.98682 7.13836L5.52216 7.64181C4.18432 7.83617 3.64923 9.48179 4.61761 10.4258L7.12466 12.8696L6.53284 16.3202C6.30429 17.6525 7.70386 18.67 8.90107 18.0408L11.9999 16.4116L15.0988 18.0408C16.2974 18.6709 17.695 17.6495 17.4669 16.3202L16.8751 12.8696L19.3822 10.4258C20.3502 9.48212 19.816 7.8363 18.4776 7.64181Z" fill="white"/>
<path d="M7.02929 3.43978L6.19269 2.28835C5.96557 1.97586 5.52811 1.90655 5.21562 2.13367C4.90309 2.36074 4.83382 2.7982 5.06089 3.11073L5.89749 4.26216C6.12473 4.57481 6.56223 4.64388 6.87456 4.41685C7.18709 4.18982 7.25636 3.75231 7.02929 3.43978Z" fill="white"/>
<path d="M4.25312 13.7587C4.13372 13.3914 3.73918 13.1901 3.37168 13.3096L1.9906 13.7584C1.62318 13.8777 1.42214 14.2724 1.5415 14.6398C1.6611 15.0079 2.05647 15.2082 2.42294 15.0889L3.80406 14.6402C4.17147 14.5208 4.37252 14.1262 4.25312 13.7587Z" fill="white"/>
<path d="M18.7842 2.13368C18.4718 1.90656 18.0343 1.97583 17.8072 2.28837L16.9706 3.43979C16.7435 3.75232 16.8128 4.18983 17.1253 4.41686C17.438 4.64401 17.8753 4.57458 18.1024 4.26217L18.939 3.11074C19.1661 2.79821 19.0968 2.36075 18.7842 2.13368Z" fill="white"/>
<path d="M22.0094 13.7583L20.6283 13.3095C20.2609 13.1899 19.8662 13.3912 19.7468 13.7586C19.6274 14.1261 19.8285 14.5207 20.1959 14.6401L21.5771 15.0889C21.9437 15.2081 22.3389 15.0077 22.4585 14.6397C22.5779 14.2723 22.3768 13.8777 22.0094 13.7583Z" fill="white"/>
<path d="M12 19.1813C11.6137 19.1813 11.3005 19.4945 11.3005 19.8808V21.3005C11.3005 21.6868 11.6137 22 12 22C12.3863 22 12.6995 21.6868 12.6995 21.3005V19.8808C12.6996 19.4945 12.3864 19.1813 12 19.1813Z" fill="white"/>
</svg>
