<svg width="20" height="20" viewBox="0 0 20 20" fill="none" xmlns="http://www.w3.org/2000/svg">
<path d="M8.83798 1.72655C9.27434 0.702662 10.7257 0.702664 11.162 1.72655L12.9268 5.86743C13.1094 6.2959 13.513 6.58911 13.9769 6.63038L18.4605 7.02919C19.5691 7.12781 20.0176 8.50809 19.1787 9.2395L15.7858 12.1975C15.4347 12.5036 15.2806 12.978 15.3847 13.432L16.3909 17.8194C16.6397 18.9042 15.4656 19.7572 14.5107 19.1854L10.649 16.8727C10.2494 16.6334 9.75058 16.6334 9.351 16.8727L5.4893 19.1854C4.53444 19.7572 3.36031 18.9042 3.60911 17.8194L4.6153 13.432C4.71942 12.978 4.56527 12.5036 4.2142 12.1975L0.82134 9.2395C-0.0175893 8.50809 0.430893 7.12781 1.53951 7.02919L6.02307 6.63038C6.487 6.58911 6.89057 6.2959 7.07318 5.86743L8.83798 1.72655Z" fill="url(#paint0_radial_0_4211)"/>
<defs>
<radialGradient id="paint0_radial_0_4211" cx="0" cy="0" r="1" gradientUnits="userSpaceOnUse" gradientTransform="translate(8.10526 7.84211) rotate(59.4703) scale(14.298 13.0641)">
<stop stop-color="#FFE34F"/>
<stop offset="0.548077" stop-color="#FFC32A"/>
<stop offset="1" stop-color="#D39800"/>
</radialGradient>
</defs>
</svg>
