<svg width="24" height="24" viewBox="0 0 24 24" fill="none" xmlns="http://www.w3.org/2000/svg">
<path d="M22.2806 11.0306L14.7806 18.5306C14.6757 18.6356 14.542 18.7072 14.3964 18.7362C14.2509 18.7651 14.1 18.7503 13.9629 18.6935C13.8257 18.6367 13.7086 18.5404 13.6262 18.417C13.5437 18.2936 13.4998 18.1484 13.4999 18V14.2716C8.14682 14.5753 4.47651 18.0469 3.44619 19.1466C3.28441 19.3193 3.07225 19.4367 2.83991 19.4819C2.60757 19.5271 2.36689 19.4979 2.15212 19.3984C1.93735 19.2989 1.75943 19.1342 1.64368 18.9278C1.52794 18.7213 1.48026 18.4836 1.50744 18.2484C1.85526 15.2241 3.51182 12.315 6.17244 10.0575C8.38213 8.18251 11.0681 6.99282 13.4999 6.7847V3.00001C13.4998 2.85159 13.5437 2.70647 13.6262 2.58302C13.7086 2.45958 13.8257 2.36336 13.9629 2.30654C14.1 2.24973 14.2509 2.23488 14.3964 2.26386C14.542 2.29285 14.6757 2.36438 14.7806 2.46939L22.2806 9.96939C22.3503 10.039 22.4056 10.1218 22.4434 10.2128C22.4811 10.3039 22.5005 10.4014 22.5005 10.5C22.5005 10.5986 22.4811 10.6962 22.4434 10.7872C22.4056 10.8783 22.3503 10.961 22.2806 11.0306Z" fill="#CCCDD0"/>
</svg>
