<svg width="36" height="36" viewBox="0 0 36 36" fill="none" xmlns="http://www.w3.org/2000/svg">
<g clip-path="url(#clip0_101_4930)">
<path d="M17.9969 29.6651C24.4392 29.6651 29.6617 24.4426 29.6617 18.0003C29.6617 11.558 24.4392 6.33545 17.9969 6.33545C11.5546 6.33545 6.33203 11.558 6.33203 18.0003C6.33203 24.4426 11.5546 29.6651 17.9969 29.6651Z" fill="white"/>
<path d="M35.3567 13.9431C35.4621 13.8165 35.4973 13.6478 35.4551 13.4861C35.4129 13.3243 35.3004 13.1978 35.1457 13.1345L32.6707 12.122C30.6879 11.3134 29.4223 9.33058 29.5278 7.18605L29.6613 4.51418C29.6684 4.34543 29.5981 4.19074 29.4715 4.08527C29.3449 3.9798 29.1762 3.94465 29.0145 3.9798L26.4199 4.61965C24.3387 5.13293 22.152 4.26808 20.9778 2.47511L19.5012 0.239177C19.4098 0.0985518 19.2621 0.0141768 19.0934 0.00714553C18.9246 -0.00691697 18.7699 0.0633955 18.6645 0.189958L16.9418 2.23605C15.5567 3.87433 13.2785 4.46496 11.2746 3.69855L8.77151 2.7423C8.61682 2.68605 8.44807 2.70011 8.30744 2.79152C8.16682 2.88293 8.08244 3.03058 8.06838 3.1923L7.87151 5.85715C7.71682 7.99465 6.21916 9.80871 4.15197 10.3712L1.57151 11.0743C1.40979 11.1165 1.28322 11.229 1.21994 11.3837C1.15666 11.5384 1.17776 11.7071 1.26213 11.8478L2.67541 14.1329C3.80744 15.954 3.65979 18.3025 2.31682 19.9759L0.636349 22.0571C0.53088 22.1837 0.495724 22.3525 0.537912 22.5142C0.580099 22.6759 0.692599 22.8025 0.847287 22.8657L3.32229 23.8782C5.3051 24.6868 6.57072 26.6696 6.46526 28.8142L6.33166 31.4861C6.32463 31.6548 6.39494 31.8095 6.52151 31.915C6.64807 32.0204 6.81682 32.0556 6.97854 32.0204L9.57307 31.3806C9.97385 31.2821 10.3817 31.2329 10.7754 31.2329C12.4559 31.2329 14.066 32.0767 15.0153 33.5251L16.4778 35.7611C16.5692 35.9017 16.7168 35.9861 16.8856 35.9931C17.0543 36.0071 17.209 35.9368 17.3145 35.8103L19.0371 33.7642C20.4223 32.1259 22.7004 31.5353 24.7043 32.3017L27.2074 33.2509C27.3621 33.3071 27.5309 33.2931 27.6715 33.2017C27.8121 33.1103 27.8965 32.9626 27.9106 32.8009L28.1074 30.1361C28.2621 27.9986 29.7598 26.1845 31.827 25.622L34.4074 24.9189C34.5692 24.8767 34.6957 24.7642 34.759 24.6095C34.8223 24.4548 34.8012 24.2861 34.7168 24.1454L33.3246 21.8673C32.1926 20.0462 32.3403 17.6978 33.6832 16.0243L35.3567 13.9431ZM17.9965 30.79C10.9442 30.79 5.20666 25.0525 5.20666 18.0001C5.20666 10.9478 10.9442 5.21027 17.9965 5.21027C25.0488 5.21027 30.7863 10.9478 30.7863 18.0001C30.7863 25.0525 25.0488 30.79 17.9965 30.79Z" fill="white"/>
</g>
<defs>
<clipPath id="clip0_101_4930">
<rect width="36" height="36" fill="white"/>
</clipPath>
</defs>
</svg>
