<svg width="85" height="32" viewBox="0 0 85 32" fill="none" xmlns="http://www.w3.org/2000/svg">
<g clip-path="url(#clip0_229_3027)">
<path d="M15.0449 15.9623L12.4696 19.3583L4.38188 19.2581L15.0449 15.9623Z" fill="#929292"/>
<path d="M15.0449 15.9623L12.4696 19.3583L4.38188 19.2581L15.0449 15.9623Z" fill="url(#paint0_linear_229_3027)"/>
<path d="M15.0449 15.9621L17.4672 19.4216L14.7971 27.0544L15.0449 15.9621Z" fill="#919191"/>
<path d="M15.0449 15.9621L17.4672 19.4216L14.7971 27.0544L15.0449 15.9621Z" fill="url(#paint1_linear_229_3027)"/>
<path d="M19.1169 14.7037L25.553 19.5232L15.0449 15.9622L19.1169 14.7037Z" fill="#C6C6C6"/>
<path d="M21.7889 7.06957L15.0449 15.9623L15.1397 11.7254L21.7889 7.06957Z" fill="url(#paint2_linear_229_3027)"/>
<path d="M8.70359 6.90579L15.0449 15.9622L11.0311 14.6021L8.70359 6.90579Z" fill="#ACACAC"/>
<path d="M8.70359 6.90579L15.0449 15.9622L11.0311 14.6021L8.70359 6.90579Z" fill="url(#paint3_linear_229_3027)"/>
<path d="M15.0449 15.9623L4.38188 19.2581L11.0311 14.6023L15.0449 15.9623Z" fill="#BEBEBE"/>
<path d="M15.0449 15.9623L4.38188 19.2581L11.0311 14.6023L15.0449 15.9623Z" fill="url(#paint4_linear_229_3027)"/>
<path d="M15.0449 15.9621L14.7971 27.0544L12.4696 19.3581L15.0449 15.9621Z" fill="#B4B4B4"/>
<path d="M15.0449 15.9621L14.7971 27.0544L12.4696 19.3581L15.0449 15.9621Z" fill="url(#paint5_linear_229_3027)"/>
<path d="M15.0449 15.9622L25.553 19.5232L17.4672 19.4216L15.0449 15.9622Z" fill="#A3A3A3"/>
<path d="M21.7889 7.06957L19.1168 14.7038L15.0449 15.9623L21.7889 7.06957Z" fill="#ACACAC"/>
<path d="M8.70349 6.90576L15.1396 11.7252L15.0448 15.9621L8.70349 6.90576Z" fill="#D9D9D9"/>
</g>
<g clip-path="url(#clip1_229_3027)">
<path d="M41.625 23.056L37.5676 24.3607L31 19.6396L41.625 23.056Z" fill="#929292"/>
<path d="M41.625 23.0559V27.2791L35.0598 32.0001L41.625 23.0559Z" fill="#919191"/>
<path d="M45.6824 24.3606L48.1902 32.0001L41.625 23.0559L45.6824 24.3606Z" fill="#C6C6C6"/>
<path d="M52.25 19.6396L41.625 23.056L44.1329 19.6396H52.25Z" fill="url(#paint6_linear_229_3027)"/>
<path d="M41.6251 12V23.0558L39.1173 19.6395L41.6251 12Z" fill="#ACACAC"/>
<path d="M41.625 23.056L31 19.6396H39.1171L41.625 23.056Z" fill="#BEBEBE"/>
<path d="M41.625 23.0559L35.0598 32.0001L37.5676 24.3606L41.625 23.0559Z" fill="#B4B4B4"/>
<path d="M41.625 23.0559L48.1902 32.0001L41.625 27.2791V23.0559Z" fill="#A3A3A3"/>
<path d="M52.25 19.6396L45.6824 24.3607L41.625 23.056L52.25 19.6396Z" fill="#ACACAC"/>
<path d="M41.625 12L44.1329 19.6395L41.625 23.0558V12Z" fill="#D9D9D9"/>
</g>
<g clip-path="url(#clip2_229_3027)">
<path d="M69.3621 16.1508L65.2901 14.8923L62.6181 7.25806L69.3621 16.1508Z" fill="#929292"/>
<path d="M69.3621 16.1507L66.9397 19.6101L58.854 19.7117L69.3621 16.1507Z" fill="#919191"/>
<path d="M71.9373 19.5466L69.6098 27.243L69.3621 16.1506L71.9373 19.5466Z" fill="#C6C6C6"/>
<path d="M80.0251 19.4465L69.3621 16.1508L73.3759 14.7907L80.0251 19.4465Z" fill="url(#paint7_linear_229_3027)"/>
<path d="M75.7036 7.09421L69.3622 16.1506L69.2674 11.9137L75.7036 7.09421Z" fill="#ACACAC"/>
<path d="M69.3621 16.1508L62.6181 7.25806L69.2673 11.9139L69.3621 16.1508Z" fill="#BEBEBE"/>
<path d="M69.3621 16.1507L58.854 19.7117L65.2901 14.8922L69.3621 16.1507Z" fill="#B4B4B4"/>
<path d="M69.3621 16.1506L69.6098 27.243L66.9398 19.6101L69.3621 16.1506Z" fill="#A3A3A3"/>
<path d="M80.0251 19.4465L71.9374 19.5467L69.3621 16.1508L80.0251 19.4465Z" fill="#ACACAC"/>
<path d="M75.7035 7.09424L73.376 14.7906L69.3621 16.1506L75.7035 7.09424Z" fill="#D9D9D9"/>
</g>
<defs>
<linearGradient id="paint0_linear_229_3027" x1="2.01699" y1="19.4508" x2="16.3097" y2="17.3931" gradientUnits="userSpaceOnUse">
<stop stop-color="#F9AB21"/>
<stop offset="1" stop-color="#CE7904"/>
</linearGradient>
<linearGradient id="paint1_linear_229_3027" x1="13.5448" y1="25.0166" x2="16.3281" y2="17.7184" gradientUnits="userSpaceOnUse">
<stop stop-color="#F9AB21"/>
<stop offset="1" stop-color="#CE7904"/>
</linearGradient>
<linearGradient id="paint2_linear_229_3027" x1="21.4201" y1="5.4873" x2="14.446" y2="14.8312" gradientUnits="userSpaceOnUse">
<stop offset="1" stop-color="#CBCBCB"/>
</linearGradient>
<linearGradient id="paint3_linear_229_3027" x1="6.81985" y1="5.49149" x2="12.9967" y2="15.1964" gradientUnits="userSpaceOnUse">
<stop stop-color="#FBC12A"/>
<stop offset="1" stop-color="#F29C14"/>
</linearGradient>
<linearGradient id="paint4_linear_229_3027" x1="6.50633" y1="17.1052" x2="17.2171" y2="15.6456" gradientUnits="userSpaceOnUse">
<stop stop-color="#FDD733"/>
<stop offset="1" stop-color="#F29C14"/>
</linearGradient>
<linearGradient id="paint5_linear_229_3027" x1="13.7905" y1="25.0058" x2="13.64" y2="14.4971" gradientUnits="userSpaceOnUse">
<stop stop-color="#FBC12A"/>
<stop offset="1" stop-color="#F29C14"/>
</linearGradient>
<linearGradient id="paint6_linear_229_3027" x1="52.8555" y1="18.132" x2="41.7832" y2="21.7859" gradientUnits="userSpaceOnUse">
<stop offset="1" stop-color="#CBCBCB"/>
</linearGradient>
<linearGradient id="paint7_linear_229_3027" x1="81.3858" y1="18.5589" x2="70.2202" y2="15.2012" gradientUnits="userSpaceOnUse">
<stop offset="1" stop-color="#CBCBCB"/>
</linearGradient>
<clipPath id="clip0_229_3027">
<rect width="21.25" height="20" fill="white" transform="translate(0 13) rotate(-35)"/>
</clipPath>
<clipPath id="clip1_229_3027">
<rect width="21.25" height="20" fill="white" transform="translate(31 12)"/>
</clipPath>
<clipPath id="clip2_229_3027">
<rect width="21.25" height="20" fill="white" transform="translate(67 1) rotate(35)"/>
</clipPath>
</defs>
</svg>
