<svg width="84" height="33" viewBox="0 0 84 33" fill="none" xmlns="http://www.w3.org/2000/svg">
<g clip-path="url(#clip0_163_594)">
<path d="M15.0449 15.6507L12.4696 19.0467L4.3819 18.9465L15.0449 15.6507Z" fill="url(#paint0_linear_163_594)"/>
<path d="M15.0449 15.6507L17.4672 19.1102L14.7972 26.743L15.0449 15.6507Z" fill="url(#paint1_linear_163_594)"/>
<path d="M19.1169 14.3922L25.553 19.2117L15.0449 15.6507L19.1169 14.3922Z" fill="url(#paint2_linear_163_594)"/>
<path d="M21.7889 6.75792L15.0449 15.6506L15.1397 11.4137L21.7889 6.75792Z" fill="url(#paint3_linear_163_594)"/>
<path d="M8.7036 6.59415L15.0449 15.6505L11.0311 14.2905L8.7036 6.59415Z" fill="url(#paint4_linear_163_594)"/>
<path d="M15.0449 15.6507L4.3819 18.9465L11.0311 14.2907L15.0449 15.6507Z" fill="url(#paint5_linear_163_594)"/>
<path d="M15.0449 15.6507L14.7972 26.743L12.4697 19.0467L15.0449 15.6507Z" fill="url(#paint6_linear_163_594)"/>
<path d="M15.0449 15.6507L25.553 19.2117L17.4672 19.1101L15.0449 15.6507Z" fill="url(#paint7_linear_163_594)"/>
<path d="M21.7889 6.75792L19.1169 14.3922L15.0449 15.6506L21.7889 6.75792Z" fill="url(#paint8_linear_163_594)"/>
<path d="M8.70349 6.59424L15.1396 11.4137L15.0448 15.6506L8.70349 6.59424Z" fill="url(#paint9_linear_163_594)"/>
</g>
<g clip-path="url(#clip1_163_594)">
<path d="M42.0035 22.8415L37.9462 24.1462L31.3785 19.4252L42.0035 22.8415Z" fill="url(#paint10_linear_163_594)"/>
<path d="M42.0035 22.8416V27.0647L35.4383 31.7858L42.0035 22.8416Z" fill="url(#paint11_linear_163_594)"/>
<path d="M46.0609 24.1463L48.5688 31.7858L42.0035 22.8416L46.0609 24.1463Z" fill="url(#paint12_linear_163_594)"/>
<path d="M52.6285 19.4252L42.0035 22.8415L44.5114 19.4252H52.6285Z" fill="url(#paint13_linear_163_594)"/>
<path d="M42.0036 11.7856V22.8414L39.4958 19.4251L42.0036 11.7856Z" fill="url(#paint14_linear_163_594)"/>
<path d="M42.0035 22.8415L31.3785 19.4252H39.4957L42.0035 22.8415Z" fill="url(#paint15_linear_163_594)"/>
<path d="M42.0035 22.8416L35.4383 31.7858L37.9461 24.1463L42.0035 22.8416Z" fill="url(#paint16_linear_163_594)"/>
<path d="M42.0035 22.8416L48.5688 31.7858L42.0035 27.0647V22.8416Z" fill="url(#paint17_linear_163_594)"/>
<path d="M52.6285 19.4252L46.0609 24.1462L42.0035 22.8415L52.6285 19.4252Z" fill="url(#paint18_linear_163_594)"/>
<path d="M42.0035 11.7856L44.5114 19.4251L42.0035 22.8414V11.7856Z" fill="url(#paint19_linear_163_594)"/>
</g>
<g style="mix-blend-mode:luminosity" clip-path="url(#clip2_163_594)">
<path d="M68.9622 15.6507L64.8902 14.3923L62.2182 6.758L68.9622 15.6507Z" fill="url(#paint20_linear_163_594)"/>
<path d="M68.9622 15.6507L66.5398 19.1102L58.454 19.2117L68.9622 15.6507Z" fill="url(#paint21_linear_163_594)"/>
<path d="M71.5374 19.0467L69.2099 26.743L68.9622 15.6507L71.5374 19.0467Z" fill="url(#paint22_linear_163_594)"/>
<path d="M79.6252 18.9465L68.9622 15.6507L72.976 14.2907L79.6252 18.9465Z" fill="url(#paint23_linear_163_594)"/>
<path d="M75.3037 6.59433L68.9624 15.6507L68.8676 11.4138L75.3037 6.59433Z" fill="url(#paint24_linear_163_594)"/>
<path d="M68.9622 15.6507L62.2182 6.758L68.8674 11.4138L68.9622 15.6507Z" fill="url(#paint25_linear_163_594)"/>
<path d="M68.9622 15.6507L58.454 19.2117L64.8902 14.3923L68.9622 15.6507Z" fill="url(#paint26_linear_163_594)"/>
<path d="M68.9622 15.6507L69.2099 26.743L66.5398 19.1101L68.9622 15.6507Z" fill="url(#paint27_linear_163_594)"/>
<path d="M79.6252 18.9465L71.5374 19.0467L68.9622 15.6507L79.6252 18.9465Z" fill="url(#paint28_linear_163_594)"/>
<path d="M75.3036 6.59424L72.9761 14.2906L68.9622 15.6506L75.3036 6.59424Z" fill="url(#paint29_linear_163_594)"/>
</g>
<defs>
<linearGradient id="paint0_linear_163_594" x1="2.01702" y1="19.1392" x2="16.3097" y2="17.0815" gradientUnits="userSpaceOnUse">
<stop stop-color="#F9AB21"/>
<stop offset="1" stop-color="#CE7904"/>
</linearGradient>
<linearGradient id="paint1_linear_163_594" x1="13.5448" y1="24.7052" x2="16.3282" y2="17.407" gradientUnits="userSpaceOnUse">
<stop stop-color="#F9AB21"/>
<stop offset="1" stop-color="#CE7904"/>
</linearGradient>
<linearGradient id="paint2_linear_163_594" x1="26.3551" y1="19.7878" x2="17.9282" y2="15.3665" gradientUnits="userSpaceOnUse">
<stop stop-color="#FDE265"/>
<stop offset="1" stop-color="#FBC12A"/>
</linearGradient>
<linearGradient id="paint3_linear_163_594" x1="21.4202" y1="5.17566" x2="14.446" y2="14.5195" gradientUnits="userSpaceOnUse">
<stop stop-color="#FDE265"/>
<stop offset="1" stop-color="#FBC12A"/>
</linearGradient>
<linearGradient id="paint4_linear_163_594" x1="6.81987" y1="5.17984" x2="12.9968" y2="14.8848" gradientUnits="userSpaceOnUse">
<stop stop-color="#FBC12A"/>
<stop offset="1" stop-color="#F29C14"/>
</linearGradient>
<linearGradient id="paint5_linear_163_594" x1="6.50635" y1="16.7936" x2="17.2171" y2="15.334" gradientUnits="userSpaceOnUse">
<stop stop-color="#FDD733"/>
<stop offset="1" stop-color="#F29C14"/>
</linearGradient>
<linearGradient id="paint6_linear_163_594" x1="13.7905" y1="24.6944" x2="13.6401" y2="14.1857" gradientUnits="userSpaceOnUse">
<stop stop-color="#FBC12A"/>
<stop offset="1" stop-color="#F29C14"/>
</linearGradient>
<linearGradient id="paint7_linear_163_594" x1="23.9746" y1="19.7754" x2="12.0751" y2="15.953" gradientUnits="userSpaceOnUse">
<stop stop-color="#F9AB21"/>
<stop offset="1" stop-color="#CE7904"/>
</linearGradient>
<linearGradient id="paint8_linear_163_594" x1="22.1928" y1="4.23429" x2="17.9029" y2="13.5011" gradientUnits="userSpaceOnUse">
<stop stop-color="#FBC12A"/>
<stop offset="1" stop-color="#F29C14"/>
</linearGradient>
<linearGradient id="paint9_linear_163_594" x1="10.2298" y1="6.46734" x2="15.6138" y2="14.5352" gradientUnits="userSpaceOnUse">
<stop stop-color="#FCED97"/>
<stop offset="1" stop-color="#FDD733"/>
</linearGradient>
<linearGradient id="paint10_linear_163_594" x1="29.3308" y1="18.2267" x2="42.2189" y2="24.7391" gradientUnits="userSpaceOnUse">
<stop stop-color="#F9AB21"/>
<stop offset="1" stop-color="#CE7904"/>
</linearGradient>
<linearGradient id="paint11_linear_163_594" x1="35.5813" y1="29.3981" x2="42.0474" y2="25.0162" gradientUnits="userSpaceOnUse">
<stop stop-color="#F9AB21"/>
<stop offset="1" stop-color="#CE7904"/>
</linearGradient>
<linearGradient id="paint12_linear_163_594" x1="48.8954" y1="32.7177" x2="44.5284" y2="24.2625" gradientUnits="userSpaceOnUse">
<stop stop-color="#FDE265"/>
<stop offset="1" stop-color="#FBC12A"/>
</linearGradient>
<linearGradient id="paint13_linear_163_594" x1="53.234" y1="17.9176" x2="42.1618" y2="21.5715" gradientUnits="userSpaceOnUse">
<stop stop-color="#FDE265"/>
<stop offset="1" stop-color="#FBC12A"/>
</linearGradient>
<linearGradient id="paint14_linear_163_594" x1="41.2718" y1="9.54664" x2="40.7651" y2="21.0394" gradientUnits="userSpaceOnUse">
<stop stop-color="#FBC12A"/>
<stop offset="1" stop-color="#F29C14"/>
</linearGradient>
<linearGradient id="paint15_linear_163_594" x1="34.3536" y1="18.8802" x2="43.9645" y2="23.8281" gradientUnits="userSpaceOnUse">
<stop stop-color="#FDD733"/>
<stop offset="1" stop-color="#F29C14"/>
</linearGradient>
<linearGradient id="paint16_linear_163_594" x1="35.7887" y1="29.5302" x2="41.693" y2="20.8357" gradientUnits="userSpaceOnUse">
<stop stop-color="#FBC12A"/>
<stop offset="1" stop-color="#F29C14"/>
</linearGradient>
<linearGradient id="paint17_linear_163_594" x1="46.9525" y1="31.3422" x2="39.3974" y2="21.3858" gradientUnits="userSpaceOnUse">
<stop stop-color="#F9AB21"/>
<stop offset="1" stop-color="#CE7904"/>
</linearGradient>
<linearGradient id="paint18_linear_163_594" x1="54.4069" y1="17.5897" x2="45.5776" y2="22.72" gradientUnits="userSpaceOnUse">
<stop stop-color="#FBC12A"/>
<stop offset="1" stop-color="#F29C14"/>
</linearGradient>
<linearGradient id="paint19_linear_163_594" x1="43.3266" y1="12.5571" x2="43.1094" y2="22.2541" gradientUnits="userSpaceOnUse">
<stop stop-color="#FCED97"/>
<stop offset="1" stop-color="#FDD733"/>
</linearGradient>
<linearGradient id="paint20_linear_163_594" x1="61.2282" y1="4.60166" x2="68.0502" y2="17.3286" gradientUnits="userSpaceOnUse">
<stop stop-color="#F9AB21"/>
<stop offset="1" stop-color="#CE7904"/>
</linearGradient>
<linearGradient id="paint21_linear_163_594" x1="59.9407" y1="17.3379" x2="67.7507" y2="17.4573" gradientUnits="userSpaceOnUse">
<stop stop-color="#F9AB21"/>
<stop offset="1" stop-color="#CE7904"/>
</linearGradient>
<linearGradient id="paint22_linear_163_594" x1="68.9429" y1="27.6937" x2="70.2154" y2="18.2629" gradientUnits="userSpaceOnUse">
<stop stop-color="#FDE265"/>
<stop offset="1" stop-color="#FBC12A"/>
</linearGradient>
<linearGradient id="paint23_linear_163_594" x1="80.9859" y1="18.0588" x2="69.8203" y2="14.7011" gradientUnits="userSpaceOnUse">
<stop stop-color="#FDE265"/>
<stop offset="1" stop-color="#FBC12A"/>
</linearGradient>
<linearGradient id="paint24_linear_163_594" x1="75.9884" y1="4.34047" x2="68.9814" y2="13.4641" gradientUnits="userSpaceOnUse">
<stop stop-color="#FBC12A"/>
<stop offset="1" stop-color="#F29C14"/>
</linearGradient>
<linearGradient id="paint25_linear_163_594" x1="64.9679" y1="8.018" x2="70.0027" y2="17.5836" gradientUnits="userSpaceOnUse">
<stop stop-color="#FDD733"/>
<stop offset="1" stop-color="#F29C14"/>
</linearGradient>
<linearGradient id="paint26_linear_163_594" x1="60.0348" y1="17.5651" x2="69.8583" y2="13.8295" gradientUnits="userSpaceOnUse">
<stop stop-color="#FBC12A"/>
<stop offset="1" stop-color="#F29C14"/>
</linearGradient>
<linearGradient id="paint27_linear_163_594" x1="68.1403" y1="25.4526" x2="67.6624" y2="12.9634" gradientUnits="userSpaceOnUse">
<stop stop-color="#F9AB21"/>
<stop offset="1" stop-color="#CE7904"/>
</linearGradient>
<linearGradient id="paint28_linear_163_594" x1="82.1348" y1="18.4629" x2="71.9596" y2="17.6012" gradientUnits="userSpaceOnUse">
<stop stop-color="#FBC12A"/>
<stop offset="1" stop-color="#F29C14"/>
</linearGradient>
<linearGradient id="paint29_linear_163_594" x1="75.9449" y1="7.98509" x2="70.205" y2="15.8038" gradientUnits="userSpaceOnUse">
<stop stop-color="#FCED97"/>
<stop offset="1" stop-color="#FDD733"/>
</linearGradient>
<clipPath id="clip0_163_594">
<rect width="21.25" height="20" fill="white" transform="translate(0 12.6885) rotate(-35)"/>
</clipPath>
<clipPath id="clip1_163_594">
<rect width="21.25" height="20" fill="white" transform="translate(31.3785 11.7856)"/>
</clipPath>
<clipPath id="clip2_163_594">
<rect width="21.25" height="20" fill="white" transform="translate(66.6001 0.5) rotate(35)"/>
</clipPath>
</defs>
</svg>
