<svg width="25" height="24" viewBox="0 0 25 24" fill="none" xmlns="http://www.w3.org/2000/svg">
<path d="M20.6 9.22006C18.79 9.22006 18.05 7.94006 18.95 6.37006C19.47 5.46006 19.16 4.30006 18.25 3.78006L16.52 2.79006C15.73 2.32006 14.71 2.60006 14.24 3.39006L14.13 3.58006C13.23 5.15006 11.75 5.15006 10.84 3.58006L10.73 3.39006C10.28 2.60006 9.26 2.32006 8.47 2.79006L6.74 3.78006C5.83 4.30006 5.52 5.47006 6.04 6.38006C6.95 7.94006 6.21 9.22006 4.4 9.22006C3.36 9.22006 2.5 10.0701 2.5 11.1201V12.8801C2.5 13.9201 3.35 14.7801 4.4 14.7801C6.21 14.7801 6.95 16.0601 6.04 17.6301C5.52 18.5401 5.83 19.7001 6.74 20.2201L8.47 21.2101C9.26 21.6801 10.28 21.4001 10.75 20.6101L10.86 20.4201C11.76 18.8501 13.24 18.8501 14.15 20.4201L14.26 20.6101C14.73 21.4001 15.75 21.6801 16.54 21.2101L18.27 20.2201C19.18 19.7001 19.49 18.5301 18.97 17.6301C18.06 16.0601 18.8 14.7801 20.61 14.7801C21.65 14.7801 22.51 13.9301 22.51 12.8801V11.1201C22.5 10.0801 21.65 9.22006 20.6 9.22006ZM12.5 15.2501C10.71 15.2501 9.25 13.7901 9.25 12.0001C9.25 10.2101 10.71 8.75006 12.5 8.75006C14.29 8.75006 15.75 10.2101 15.75 12.0001C15.75 13.7901 14.29 15.2501 12.5 15.2501Z" fill="white"/>
</svg>
