<svg width="145" height="52" viewBox="0 0 145 52" fill="none" xmlns="http://www.w3.org/2000/svg">
<g clip-path="url(#clip0_422_3329)">
<path d="M19.8486 37.6892L13.3568 39.7768L2.84863 32.2231L19.8486 37.6892Z" fill="url(#paint0_linear_422_3329)"/>
<path d="M19.8486 37.6892V44.4463L9.34424 51.9999L19.8486 37.6892Z" fill="url(#paint1_linear_422_3329)"/>
<path d="M26.3404 39.7767L30.353 51.9999L19.8486 37.6892L26.3404 39.7767Z" fill="url(#paint2_linear_422_3329)"/>
<path d="M36.8486 32.2231L19.8486 37.6892L23.8612 32.2231H36.8486Z" fill="url(#paint3_linear_422_3329)"/>
<path d="M19.8485 20V37.6893L15.8359 32.2232L19.8485 20Z" fill="url(#paint4_linear_422_3329)"/>
<path d="M19.8486 37.6892L2.84863 32.2231H15.8361L19.8486 37.6892Z" fill="url(#paint5_linear_422_3329)"/>
<path d="M19.8486 37.6892L9.34424 51.9999L13.3568 39.7767L19.8486 37.6892Z" fill="url(#paint6_linear_422_3329)"/>
<path d="M19.8486 37.6892L30.353 51.9999L19.8486 44.4463V37.6892Z" fill="url(#paint7_linear_422_3329)"/>
<path d="M36.8486 32.2231L26.3404 39.7768L19.8486 37.6892L36.8486 32.2231Z" fill="url(#paint8_linear_422_3329)"/>
<path d="M19.8486 20L23.8612 32.2232L19.8486 37.6893V20Z" fill="url(#paint9_linear_422_3329)"/>
</g>
<g clip-path="url(#clip1_422_3329)">
<path d="M72.4736 28.7452L61.9244 32.1374L44.8486 19.8628L72.4736 28.7452Z" fill="url(#paint10_linear_422_3329)"/>
<path d="M72.4734 28.7454V39.7257L55.4038 52.0003L72.4734 28.7454Z" fill="url(#paint11_linear_422_3329)"/>
<path d="M83.0228 32.1376L89.5432 52.0003L72.4736 28.7454L83.0228 32.1376Z" fill="url(#paint12_linear_422_3329)"/>
<path d="M100.099 19.8628L72.4736 28.7452L78.9941 19.8628H100.099Z" fill="url(#paint13_linear_422_3329)"/>
<path d="M72.474 0V28.7451L65.9536 19.8627L72.474 0Z" fill="url(#paint14_linear_422_3329)"/>
<path d="M72.4736 28.7452L44.8486 19.8628H65.9532L72.4736 28.7452Z" fill="url(#paint15_linear_422_3329)"/>
<path d="M72.4734 28.7454L55.4038 52.0003L61.9242 32.1376L72.4734 28.7454Z" fill="url(#paint16_linear_422_3329)"/>
<path d="M72.4736 28.7454L89.5432 52.0003L72.4736 39.7257V28.7454Z" fill="url(#paint17_linear_422_3329)"/>
<path d="M100.099 19.8628L83.0228 32.1374L72.4736 28.7452L100.099 19.8628Z" fill="url(#paint18_linear_422_3329)"/>
<path d="M72.4736 0L78.9941 19.8627L72.4736 28.7451V0Z" fill="url(#paint19_linear_422_3329)"/>
</g>
<g clip-path="url(#clip2_422_3329)">
<path d="M125.099 37.6892L118.607 39.7768L108.099 32.2231L125.099 37.6892Z" fill="url(#paint20_linear_422_3329)"/>
<path d="M125.099 37.6892V44.4463L114.594 51.9999L125.099 37.6892Z" fill="url(#paint21_linear_422_3329)"/>
<path d="M131.59 39.7767L135.603 51.9999L125.099 37.6892L131.59 39.7767Z" fill="url(#paint22_linear_422_3329)"/>
<path d="M142.099 32.2231L125.099 37.6892L129.111 32.2231H142.099Z" fill="url(#paint23_linear_422_3329)"/>
<path d="M125.099 20V37.6893L121.086 32.2232L125.099 20Z" fill="url(#paint24_linear_422_3329)"/>
<path d="M125.099 37.6892L108.099 32.2231H121.086L125.099 37.6892Z" fill="url(#paint25_linear_422_3329)"/>
<path d="M125.099 37.6892L114.594 51.9999L118.607 39.7767L125.099 37.6892Z" fill="url(#paint26_linear_422_3329)"/>
<path d="M125.099 37.6892L135.603 51.9999L125.099 44.4463V37.6892Z" fill="url(#paint27_linear_422_3329)"/>
<path d="M142.099 32.2231L131.59 39.7768L125.099 37.6892L142.099 32.2231Z" fill="url(#paint28_linear_422_3329)"/>
<path d="M125.099 20L129.111 32.2232L125.099 37.6893V20Z" fill="url(#paint29_linear_422_3329)"/>
</g>
<defs>
<linearGradient id="paint0_linear_422_3329" x1="-0.427786" y1="30.3055" x2="20.1933" y2="40.7253" gradientUnits="userSpaceOnUse">
<stop stop-color="#F9AB21"/>
<stop offset="1" stop-color="#CE7904"/>
</linearGradient>
<linearGradient id="paint1_linear_422_3329" x1="9.57309" y1="48.1797" x2="19.9187" y2="41.1687" gradientUnits="userSpaceOnUse">
<stop stop-color="#F9AB21"/>
<stop offset="1" stop-color="#CE7904"/>
</linearGradient>
<linearGradient id="paint2_linear_422_3329" x1="30.8756" y1="53.491" x2="23.8884" y2="39.9627" gradientUnits="userSpaceOnUse">
<stop stop-color="#FDE265"/>
<stop offset="1" stop-color="#FBC12A"/>
</linearGradient>
<linearGradient id="paint3_linear_422_3329" x1="37.8174" y1="29.811" x2="20.1018" y2="35.6572" gradientUnits="userSpaceOnUse">
<stop stop-color="#FDE265"/>
<stop offset="1" stop-color="#FBC12A"/>
</linearGradient>
<linearGradient id="paint4_linear_422_3329" x1="18.6775" y1="16.4176" x2="17.8668" y2="34.806" gradientUnits="userSpaceOnUse">
<stop stop-color="#FBC12A"/>
<stop offset="1" stop-color="#F29C14"/>
</linearGradient>
<linearGradient id="paint5_linear_422_3329" x1="7.60879" y1="31.3511" x2="22.9862" y2="39.2677" gradientUnits="userSpaceOnUse">
<stop stop-color="#FDD733"/>
<stop offset="1" stop-color="#F29C14"/>
</linearGradient>
<linearGradient id="paint6_linear_422_3329" x1="9.90493" y1="48.3911" x2="19.3518" y2="34.4798" gradientUnits="userSpaceOnUse">
<stop stop-color="#FBC12A"/>
<stop offset="1" stop-color="#F29C14"/>
</linearGradient>
<linearGradient id="paint7_linear_422_3329" x1="27.767" y1="51.2902" x2="15.6788" y2="35.36" gradientUnits="userSpaceOnUse">
<stop stop-color="#F9AB21"/>
<stop offset="1" stop-color="#CE7904"/>
</linearGradient>
<linearGradient id="paint8_linear_422_3329" x1="39.694" y1="29.2863" x2="25.5672" y2="37.4948" gradientUnits="userSpaceOnUse">
<stop stop-color="#FBC12A"/>
<stop offset="1" stop-color="#F29C14"/>
</linearGradient>
<linearGradient id="paint9_linear_422_3329" x1="21.9655" y1="21.2344" x2="21.6181" y2="36.7495" gradientUnits="userSpaceOnUse">
<stop stop-color="#FCED97"/>
<stop offset="1" stop-color="#FDD733"/>
</linearGradient>
<linearGradient id="paint10_linear_422_3329" x1="39.5245" y1="16.7466" x2="73.0337" y2="33.6788" gradientUnits="userSpaceOnUse">
<stop stop-color="#F9AB21"/>
<stop offset="1" stop-color="#CE7904"/>
</linearGradient>
<linearGradient id="paint11_linear_422_3329" x1="55.7757" y1="45.7924" x2="72.5874" y2="34.3995" gradientUnits="userSpaceOnUse">
<stop stop-color="#F9AB21"/>
<stop offset="1" stop-color="#CE7904"/>
</linearGradient>
<linearGradient id="paint12_linear_422_3329" x1="90.3924" y1="54.4233" x2="79.0383" y2="32.4398" gradientUnits="userSpaceOnUse">
<stop stop-color="#FDE265"/>
<stop offset="1" stop-color="#FBC12A"/>
</linearGradient>
<linearGradient id="paint13_linear_422_3329" x1="101.673" y1="15.943" x2="72.885" y2="25.4431" gradientUnits="userSpaceOnUse">
<stop stop-color="#FDE265"/>
<stop offset="1" stop-color="#FBC12A"/>
</linearGradient>
<linearGradient id="paint14_linear_422_3329" x1="70.5712" y1="-5.8214" x2="69.2537" y2="24.0597" gradientUnits="userSpaceOnUse">
<stop stop-color="#FBC12A"/>
<stop offset="1" stop-color="#F29C14"/>
</linearGradient>
<linearGradient id="paint15_linear_422_3329" x1="52.5839" y1="18.4458" x2="77.5722" y2="31.3101" gradientUnits="userSpaceOnUse">
<stop stop-color="#FDD733"/>
<stop offset="1" stop-color="#F29C14"/>
</linearGradient>
<linearGradient id="paint16_linear_422_3329" x1="56.3149" y1="46.1359" x2="71.6661" y2="23.5301" gradientUnits="userSpaceOnUse">
<stop stop-color="#FBC12A"/>
<stop offset="1" stop-color="#F29C14"/>
</linearGradient>
<linearGradient id="paint17_linear_422_3329" x1="85.3409" y1="50.847" x2="65.6977" y2="24.9603" gradientUnits="userSpaceOnUse">
<stop stop-color="#F9AB21"/>
<stop offset="1" stop-color="#CE7904"/>
</linearGradient>
<linearGradient id="paint18_linear_422_3329" x1="104.722" y1="15.0904" x2="81.7663" y2="28.4293" gradientUnits="userSpaceOnUse">
<stop stop-color="#FBC12A"/>
<stop offset="1" stop-color="#F29C14"/>
</linearGradient>
<linearGradient id="paint19_linear_422_3329" x1="75.9136" y1="2.0059" x2="75.349" y2="27.2179" gradientUnits="userSpaceOnUse">
<stop stop-color="#FCED97"/>
<stop offset="1" stop-color="#FDD733"/>
</linearGradient>
<linearGradient id="paint20_linear_422_3329" x1="104.822" y1="30.3055" x2="125.443" y2="40.7253" gradientUnits="userSpaceOnUse">
<stop stop-color="#F9AB21"/>
<stop offset="1" stop-color="#CE7904"/>
</linearGradient>
<linearGradient id="paint21_linear_422_3329" x1="114.823" y1="48.1797" x2="125.169" y2="41.1687" gradientUnits="userSpaceOnUse">
<stop stop-color="#F9AB21"/>
<stop offset="1" stop-color="#CE7904"/>
</linearGradient>
<linearGradient id="paint22_linear_422_3329" x1="136.126" y1="53.491" x2="129.138" y2="39.9627" gradientUnits="userSpaceOnUse">
<stop stop-color="#FDE265"/>
<stop offset="1" stop-color="#FBC12A"/>
</linearGradient>
<linearGradient id="paint23_linear_422_3329" x1="143.067" y1="29.811" x2="125.352" y2="35.6572" gradientUnits="userSpaceOnUse">
<stop stop-color="#FDE265"/>
<stop offset="1" stop-color="#FBC12A"/>
</linearGradient>
<linearGradient id="paint24_linear_422_3329" x1="123.928" y1="16.4176" x2="123.117" y2="34.806" gradientUnits="userSpaceOnUse">
<stop stop-color="#FBC12A"/>
<stop offset="1" stop-color="#F29C14"/>
</linearGradient>
<linearGradient id="paint25_linear_422_3329" x1="112.859" y1="31.3511" x2="128.236" y2="39.2677" gradientUnits="userSpaceOnUse">
<stop stop-color="#FDD733"/>
<stop offset="1" stop-color="#F29C14"/>
</linearGradient>
<linearGradient id="paint26_linear_422_3329" x1="115.155" y1="48.3911" x2="124.602" y2="34.4798" gradientUnits="userSpaceOnUse">
<stop stop-color="#FBC12A"/>
<stop offset="1" stop-color="#F29C14"/>
</linearGradient>
<linearGradient id="paint27_linear_422_3329" x1="133.017" y1="51.2902" x2="120.929" y2="35.36" gradientUnits="userSpaceOnUse">
<stop stop-color="#F9AB21"/>
<stop offset="1" stop-color="#CE7904"/>
</linearGradient>
<linearGradient id="paint28_linear_422_3329" x1="144.944" y1="29.2863" x2="130.817" y2="37.4948" gradientUnits="userSpaceOnUse">
<stop stop-color="#FBC12A"/>
<stop offset="1" stop-color="#F29C14"/>
</linearGradient>
<linearGradient id="paint29_linear_422_3329" x1="127.216" y1="21.2344" x2="126.868" y2="36.7495" gradientUnits="userSpaceOnUse">
<stop stop-color="#FCED97"/>
<stop offset="1" stop-color="#FDD733"/>
</linearGradient>
<clipPath id="clip0_422_3329">
<rect width="34" height="32" fill="white" transform="translate(2.84863 20)"/>
</clipPath>
<clipPath id="clip1_422_3329">
<rect width="55.25" height="52" fill="white" transform="translate(44.8486)"/>
</clipPath>
<clipPath id="clip2_422_3329">
<rect width="34" height="32" fill="white" transform="translate(108.099 20)"/>
</clipPath>
</defs>
</svg>
