<svg width="66" height="66" viewBox="0 0 66 66" fill="none" xmlns="http://www.w3.org/2000/svg">
<path d="M23.4999 34.4999L23.6844 34.0352L23.4999 34.4999ZM13.1045 64.9889C13.3745 64.931 13.5465 64.6652 13.4886 64.3952L12.5458 59.9951C12.4879 59.7251 12.2221 59.5531 11.9521 59.611C11.6821 59.6688 11.5101 59.9346 11.5679 60.2047L12.4061 64.1159L8.49485 64.954C8.22484 65.0118 8.05286 65.2776 8.11072 65.5476C8.16858 65.8177 8.43437 65.9896 8.70438 65.9318L13.1045 64.9889ZM12.9997 64.5L13.2714 64.0802C12.0086 63.2631 10.8351 62.2466 9.75724 61.0597L9.3871 61.3959L9.01695 61.732C10.1464 62.9757 11.385 64.0507 12.7281 64.9198L12.9997 64.5ZM4.41112 53.2765L4.87308 53.0852C3.72184 50.305 2.86454 47.2304 2.32705 44.0045L1.83385 44.0867L1.34065 44.1688C1.88929 47.4617 2.76595 50.6104 3.94916 53.4678L4.41112 53.2765ZM1.18235 34.5596L1.68217 34.573C1.76659 31.415 2.15104 28.2497 2.8538 25.1949L2.36653 25.0828L1.87925 24.9707C1.1607 28.0942 0.768614 31.3259 0.682528 34.5463L1.18235 34.5596ZM5.56891 16.0951L6.01499 16.3209C7.45375 13.4793 9.26167 10.8954 11.4582 8.70107L11.1048 8.34734L10.7514 7.99361C8.47118 10.2716 6.60351 12.9448 5.12283 15.8692L5.56891 16.0951ZM18.9568 2.99124L19.1556 3.44999C20.5495 2.84579 22.0344 2.35345 23.613 1.98699L23.4999 1.49994L23.3868 1.01289C21.7503 1.3928 20.2079 1.90393 18.7579 2.53248L18.9568 2.99124ZM23.4999 1.49994L23.613 1.98699C25.0644 1.65004 26.4517 1.47735 27.7727 1.44901L27.7619 0.94913L27.7512 0.449245C26.3578 0.479135 24.902 0.661165 23.3868 1.01289L23.4999 1.49994ZM36.0227 2.84731L35.7903 3.29005C38.2673 4.58997 40.3465 6.50047 41.9865 8.76693L42.3915 8.47383L42.7966 8.18073C41.0785 5.80624 38.8862 3.78543 36.255 2.40458L36.0227 2.84731ZM46.0114 16.1988L45.528 16.3267C46.2653 19.1122 46.4856 21.98 46.1532 24.6384L46.6494 24.7004L47.1455 24.7625C47.4951 21.966 47.2619 18.9691 46.4947 16.0708L46.0114 16.1988ZM43.438 32.527L43.0567 32.2035C41.3955 34.1618 39.0669 35.5545 35.9979 36.031L36.0746 36.5251L36.1513 37.0192C39.4533 36.5065 41.9997 34.9954 43.8193 32.8504L43.438 32.527ZM27.5998 35.8653L27.7276 35.3819C26.4526 35.0449 25.1054 34.5994 23.6844 34.0352L23.4999 34.4999L23.3154 34.9646C24.7699 35.5422 26.155 36.0006 27.4721 36.3487L27.5998 35.8653ZM23.4999 34.4999L23.6844 34.0352C22.1518 33.4267 20.8545 32.8056 19.7732 32.1759L19.5216 32.608L19.2699 33.04C20.4032 33.7 21.7472 34.342 23.3154 34.9646L23.4999 34.4999ZM14.9475 25.8164L15.4391 25.9077C15.8117 23.9022 17.6323 21.75 20.6244 19.5456L20.3278 19.1431L20.0312 18.7405C17.0071 20.9685 14.9031 23.3187 14.4559 25.725L14.9475 25.8164ZM27.8512 14.6474L28.0771 15.0934C30.5223 13.8552 33.2078 12.646 36.0336 11.4821L35.8431 11.0197L35.6527 10.5574C32.8087 11.7289 30.0987 12.9488 27.6253 14.2013L27.8512 14.6474ZM44.0378 7.89226L44.2051 8.36341C46.9615 7.38421 49.7548 6.45692 52.5062 5.59406L52.3566 5.11697L52.207 4.63988C49.4449 5.50607 46.6397 6.4373 43.8704 7.42111L44.0378 7.89226ZM60.7737 2.63192L60.9072 3.11376C62.3574 2.71183 63.768 2.33452 65.1249 1.98405L64.9999 1.49994L64.8749 1.01583C63.5122 1.36778 62.0959 1.74661 60.6401 2.15009L60.7737 2.63192Z" fill="white"/>
</svg>
