<svg width="20" height="20" viewBox="0 0 20 20" fill="none" xmlns="http://www.w3.org/2000/svg">
<path d="M5.00008 5.83335C5.00008 4.72829 5.43907 3.66848 6.22047 2.88708C7.00187 2.10567 8.06168 1.66669 9.16675 1.66669C10.2718 1.66669 11.3316 2.10567 12.113 2.88708C12.8944 3.66848 13.3334 4.72829 13.3334 5.83335C13.3334 6.93842 12.8944 7.99823 12.113 8.77963C11.3316 9.56103 10.2718 10 9.16675 10C8.06168 10 7.00187 9.56103 6.22047 8.77963C5.43907 7.99823 5.00008 6.93842 5.00008 5.83335ZM4.01841 12.2267C5.35425 11.4117 7.17092 10.8334 9.16675 10.8334C9.53953 10.8334 9.90508 10.8528 10.2634 10.8917C10.4066 10.907 10.5433 10.9592 10.6603 11.0431C10.7772 11.127 10.8705 11.2398 10.9309 11.3705C10.9913 11.5012 11.0169 11.6453 11.005 11.7887C10.9932 11.9322 10.9444 12.0702 10.8634 12.1892C10.299 13.0177 9.99808 13.9975 10.0001 15C10.0001 15.7667 10.1726 16.4917 10.4792 17.1392C10.539 17.2653 10.5661 17.4045 10.5581 17.5438C10.5501 17.6832 10.5072 17.8183 10.4334 17.9367C10.3595 18.0552 10.2571 18.1532 10.1356 18.2218C10.014 18.2903 9.87715 18.3273 9.73758 18.3292L9.16675 18.3334C7.30925 18.3334 5.55425 18.2167 4.23925 17.8684C3.58508 17.695 2.96925 17.4467 2.50258 17.0717C2.00841 16.675 1.66675 16.1209 1.66675 15.4167C1.66675 14.7609 1.96508 14.1475 2.37008 13.6342C2.78175 13.1134 3.35091 12.6342 4.01841 12.2259V12.2267ZM14.1667 17.5C14.1668 17.2959 14.2417 17.0989 14.3773 16.9464C14.513 16.7938 14.6999 16.6964 14.9026 16.6725L15.0017 16.6667C15.2141 16.6669 15.4184 16.7483 15.5729 16.8941C15.7273 17.0399 15.8203 17.2391 15.8327 17.4512C15.8452 17.6632 15.7762 17.872 15.6399 18.0349C15.5035 18.1978 15.3102 18.3024 15.0992 18.3275L15.0001 18.3334C14.7791 18.3334 14.5671 18.2456 14.4108 18.0893C14.2545 17.933 14.1667 17.721 14.1667 17.5ZM14.6392 13.5417C14.6851 13.4623 14.7559 13.4002 14.8406 13.3651C14.9254 13.33 15.0193 13.3238 15.1079 13.3476C15.1965 13.3713 15.2748 13.4236 15.3306 13.4964C15.3865 13.5691 15.4167 13.6583 15.4167 13.75C15.4167 13.8625 15.3767 13.9625 15.1492 14.15L15.0284 14.245L14.9367 14.3134C14.8751 14.3592 14.8017 14.4134 14.7342 14.4684L14.6184 14.565C14.4358 14.721 14.2959 14.9209 14.2117 15.1459C14.1436 15.345 14.1533 15.5626 14.2389 15.7549C14.3246 15.9472 14.4798 16.0999 14.6734 16.1824C14.8671 16.265 15.0848 16.2711 15.2828 16.1997C15.4808 16.1283 15.6445 15.9846 15.7409 15.7975L15.8217 15.7334L16.1192 15.5084L16.2084 15.4367L16.3592 15.305C16.6976 14.9934 17.0834 14.4984 17.0834 13.75C17.0837 13.2917 16.9329 12.8461 16.6543 12.4822C16.3757 12.1183 15.9849 11.8564 15.5424 11.7371C15.0999 11.6178 14.6304 11.6477 14.2067 11.8223C13.7829 11.9968 13.4285 12.3062 13.1984 12.7025C13.0871 12.8936 13.0563 13.121 13.1127 13.3348C13.1691 13.5486 13.3082 13.7312 13.4992 13.8425C13.6903 13.9538 13.9178 13.9846 14.1316 13.9282C14.3453 13.8718 14.528 13.7328 14.6392 13.5417Z" fill="white"/>
</svg>
