<svg width="63" height="105" viewBox="0 0 63 105" fill="none" xmlns="http://www.w3.org/2000/svg">
<path d="M38.3356 32.0001L38.5201 32.4648L38.3356 32.0001ZM27.9402 1.51111C28.2102 1.56897 28.3822 1.83476 28.3244 2.10477L27.3815 6.50488C27.3236 6.77489 27.0578 6.94688 26.7878 6.88902C26.5178 6.83116 26.3458 6.56537 26.4037 6.29536L27.2418 2.38415L23.3306 1.54603C23.0606 1.48817 22.8886 1.22237 22.9465 0.952362C23.0043 0.68235 23.2701 0.510368 23.5401 0.568222L27.9402 1.51111ZM10.5002 103L10.7275 103.445C8.97309 104.34 7.4319 104.827 6.096 104.922L6.06037 104.424L6.02473 103.925C7.18208 103.842 8.58986 103.413 10.273 102.555L10.5002 103ZM0.637091 98.2395L0.13947 98.2882C-0.114359 95.6959 0.158389 92.4699 0.862826 88.8593L1.35357 88.955L1.84432 89.0508C1.14959 92.6117 0.893968 95.7321 1.13471 98.1908L0.637091 98.2395ZM3.73879 79.955L3.26338 79.8001C4.18777 76.9622 5.29229 74.0156 6.55156 71.0381L7.01207 71.2328L7.47258 71.4276C6.22363 74.3807 5.12922 77.3007 4.21421 80.1098L3.73879 79.955ZM10.9705 62.7867L10.5261 62.5575C11.9561 59.7845 13.5011 57.0474 15.1407 54.4095L15.5653 54.6735L15.99 54.9374C14.3653 57.5513 12.8334 60.2652 11.4149 63.0158L10.9705 62.7867ZM20.8471 46.9946L20.45 46.6908C22.425 44.1094 24.4898 41.7206 26.6183 39.6079L26.9705 39.9628L27.3228 40.3177C25.2316 42.3933 23.1964 44.747 21.2442 47.2985L20.8471 46.9946ZM34.2042 34.1111L33.94 33.6866C35.3295 32.8219 36.7353 32.0975 38.1511 31.5354L38.3356 32.0001L38.5201 32.4648C37.1668 33.0021 35.8141 33.6981 34.4684 34.5356L34.2042 34.1111ZM38.3356 32.0001L38.1511 31.5354C39.6056 30.9579 40.9907 30.4994 42.3078 30.1513L42.4356 30.6347L42.5633 31.1181C41.2883 31.4551 39.9411 31.9006 38.5201 32.4648L38.3356 32.0001ZM50.9103 29.9749L50.987 29.4809C54.2891 29.9935 56.8354 31.5046 58.655 33.6496L58.2737 33.9731L57.8925 34.2965C56.2312 32.3382 53.9027 30.9455 50.8336 30.469L50.9103 29.9749ZM61.4851 41.7996L61.9812 41.7375C62.3309 44.534 62.0976 47.531 61.3304 50.4292L60.8471 50.3012L60.3637 50.1733C61.1011 47.3878 61.3213 44.52 60.989 41.8616L61.4851 41.7996ZM57.2273 58.0262L57.6323 58.3193C55.9143 60.6938 53.7219 62.7146 51.0908 64.0954L50.8584 63.6527L50.6261 63.21C53.103 61.91 55.1823 59.9995 56.8222 57.7331L57.2273 58.0262ZM42.5977 65.5509L42.5869 66.0508C41.1936 66.0209 39.7377 65.8388 38.2226 65.4871L38.3356 65.0001L38.4487 64.513C39.9002 64.85 41.2875 65.0226 42.6084 65.051L42.5977 65.5509ZM38.3356 65.0001L38.2226 65.4871C36.586 65.1072 35.0437 64.5961 33.5936 63.9675L33.7925 63.5088L33.9914 63.05C35.3852 63.6542 36.8701 64.1465 38.4487 64.513L38.3356 65.0001ZM25.9405 58.1527L25.5871 58.5064C23.3069 56.2284 21.4392 53.5552 19.9586 50.6308L20.4046 50.4049L20.8507 50.1791C22.2895 53.0207 24.0974 55.6046 26.2939 57.7989L25.9405 58.1527ZM17.2023 41.4172L16.715 41.5293C15.9964 38.4058 15.6043 35.1741 15.5183 31.9537L16.0181 31.9404L16.5179 31.927C16.6023 35.085 16.9868 38.2503 17.6895 41.3051L17.2023 41.4172ZM16.6696 22.4133L16.1764 22.3311C16.725 19.0383 17.6017 15.8896 18.7849 13.0322L19.2469 13.2235L19.7088 13.4147C18.5576 16.195 17.7003 19.2696 17.1628 22.4955L16.6696 22.4133ZM24.2228 5.10411L23.8527 4.76797C24.9822 3.52425 26.2207 2.44931 27.5638 1.58022L27.8355 2.00001L28.1071 2.41979C26.8444 3.23685 25.6709 4.25337 24.593 5.44026L24.2228 5.10411Z" fill="white"/>
</svg>
