<svg width="32" height="32" viewBox="0 0 32 32" fill="none" xmlns="http://www.w3.org/2000/svg">
<circle cx="16.0001" cy="16" r="13.3333" fill="#A0A0A0"/>
<path d="M20.4558 18.8565L17.5305 15.9353L20.4558 13.0142C20.8588 12.6112 20.8588 11.9571 20.4568 11.553C20.0528 11.148 19.3987 11.149 18.9947 11.552L16.0673 14.4752L13.14 11.552C12.7359 11.149 12.0819 11.148 11.6778 11.553C11.2749 11.957 11.2749 12.6111 11.6789 13.0142L14.6042 15.9353L11.6789 18.8565C11.2749 19.2595 11.2749 19.9136 11.6778 20.3176C11.8794 20.5202 12.1449 20.6204 12.4094 20.6204C12.674 20.6204 12.9385 20.5191 13.14 20.3186L16.0674 17.3954L18.9948 20.3186C19.1963 20.5202 19.4608 20.6204 19.7253 20.6204C19.9899 20.6204 20.2554 20.5191 20.457 20.3176C20.8598 19.9136 20.8598 19.2595 20.4558 18.8565Z" fill="white"/>
</svg>
