<svg width="32" height="32" viewBox="0 0 32 32" fill="none" xmlns="http://www.w3.org/2000/svg">
<g clip-path="url(#clip0_2001_558)">
<path d="M16 32C24.8366 32 32 24.8366 32 16C32 7.16344 24.8366 0 16 0C7.16344 0 0 7.16344 0 16C0 24.8366 7.16344 32 16 32Z" fill="#F5F5F5"/>
<path d="M11.4133 16.9064C12.9066 17.9197 14.9866 17.4931 16 15.9997C17.0133 14.5064 19.04 14.0797 20.5866 15.0931C22.0266 16.0531 22.4533 17.9197 21.6533 19.3597C23.4133 16.3731 22.6133 12.4797 19.6266 10.5064C16.5866 8.47974 12.48 9.27974 10.4533 12.3197C10.4 12.4264 10.3466 12.5331 10.2933 12.5864C9.54662 14.1331 10.0266 15.9464 11.4133 16.9064Z" fill="#ED4C5C"/>
<path d="M20.5866 15.0935C19.0932 14.0801 17.0132 14.5068 15.9999 16.0001C14.9866 17.4935 12.9599 17.9201 11.4132 16.9068C9.97323 15.9468 9.54657 14.0801 10.3466 12.6401C8.53323 15.6268 9.38657 19.5201 12.3732 21.4935C15.4132 23.5201 19.5199 22.7201 21.5466 19.6801C21.5999 19.5735 21.6532 19.4668 21.7066 19.4135C22.4532 17.8668 21.9732 16.0535 20.5866 15.0935Z" fill="#0B67B2"/>
<path d="M3.09322 11.3598L6.77322 5.86647L6.39989 5.59981L6.02656 5.38647L2.34656 10.8798L2.71989 11.0931L3.09322 11.3598ZM4.10656 12.0531L4.47989 12.2665L8.10656 6.77314L7.78656 6.55981L7.41322 6.29314L3.73322 11.7865L4.10656 12.0531ZM8.74656 7.19981L5.11989 12.6931L5.49322 12.9598L5.86656 13.1731L9.49322 7.67981L9.11989 7.46647L8.74656 7.19981ZM24.7999 21.5998L25.1732 21.8665L26.8799 19.3065L26.5066 19.0398L26.1332 18.8265L24.4266 21.3865L24.7999 21.5998ZM28.9066 20.6398L27.1999 23.1998L27.5732 23.4665L27.9466 23.6798L29.6532 21.1198L29.2799 20.9065L28.9066 20.6398ZM26.5599 22.7731L28.2666 20.2131L27.8932 19.9465L27.5199 19.7331L25.8132 22.2931L26.1866 22.5065L26.5599 22.7731ZM24.5866 21.9731L24.2132 21.7598L22.5066 24.3198L22.8799 24.5331L23.2532 24.7998L24.9599 22.2398L24.5866 21.9731ZM25.9199 22.8798L25.5999 22.6665L23.8932 25.2265L24.2132 25.4398L24.5866 25.7065L26.2932 23.1465L25.9199 22.8798ZM26.9332 23.5731L25.2266 26.1331L25.5999 26.3998L25.9732 26.6131L27.6799 24.0531L27.3066 23.7865L26.9332 23.5731ZM2.71989 20.9065L2.34656 21.1198L6.02656 26.6131L6.39989 26.3998L6.77322 26.1331L3.09322 20.6398L2.71989 20.9065ZM6.07989 22.8798L5.70656 23.1465L7.41322 25.7065L7.78656 25.4398L8.10656 25.2265L6.39989 22.6665L6.07989 22.8798ZM5.49322 19.0398L5.11989 19.3065L8.74656 24.7998L9.11989 24.5331L9.49322 24.3198L5.86656 18.8265L5.49322 19.0398ZM3.73322 20.2131L5.43989 22.7731L5.81322 22.5065L6.18656 22.2931L4.47989 19.7331L4.10656 19.9465L3.73322 20.2131ZM27.3066 8.21314L27.6799 7.94647L25.9732 5.38647L25.5999 5.59981L25.2266 5.86647L26.9332 8.42647L27.3066 8.21314ZM24.5866 10.0265L24.9599 9.75981L23.2532 7.19981L22.8799 7.46647L22.5066 7.67981L24.2132 10.2398L24.5866 10.0265ZM27.1999 8.79981L28.9066 11.3598L29.2799 11.0931L29.6532 10.8798L27.9466 8.31981L27.5732 8.53314L27.1999 8.79981ZM27.8932 12.0531L28.2666 11.7865L24.5866 6.29314L24.2132 6.55981L23.8932 6.77314L27.5199 12.2665L27.8932 12.0531ZM26.5066 12.9598L26.8799 12.6931L25.1732 10.1331L24.7999 10.3998L24.4266 10.6131L26.1332 13.1731L26.5066 12.9598Z" fill="#3E4347"/>
</g>
<defs>
<clipPath id="clip0_2001_558">
<rect width="32" height="32" fill="white"/>
</clipPath>
</defs>
</svg>
