<svg width="32" height="32" viewBox="0 0 32 32" fill="none" xmlns="http://www.w3.org/2000/svg">
<g clip-path="url(#clip0_2001_496)">
<path d="M7.99991 29.8666V2.1333C3.19991 4.90663 -9.15527e-05 10.08 -9.15527e-05 16C-9.15527e-05 21.92 3.19991 27.0933 7.99991 29.8666Z" fill="#699635"/>
<path d="M15.9999 0C13.0666 0 10.3466 0.8 7.99994 2.13333V29.8667C10.3466 31.2533 13.0666 32 15.9999 32C24.8533 32 31.9999 24.8533 31.9999 16C31.9999 7.14667 24.8533 0 15.9999 0Z" fill="#ED4C5C"/>
<path d="M7.99982 9.59985C4.47982 9.59985 1.59982 12.4799 1.59982 15.9999C1.59982 19.5199 4.47982 22.3999 7.99982 22.3999C11.5198 22.3999 14.3998 19.5199 14.3998 15.9999C14.3998 12.4799 11.5198 9.59985 7.99982 9.59985ZM7.99982 21.5999C4.90649 21.5999 2.39982 19.0932 2.39982 15.9999C2.39982 12.9065 4.90649 10.3999 7.99982 10.3999C11.0932 10.3999 13.5998 12.9065 13.5998 15.9999C13.5998 19.0932 11.0932 21.5999 7.99982 21.5999Z" fill="#FFE62E"/>
<path d="M10.1867 22.2401C10.08 22.3467 9.92 22.3467 9.81333 22.2401L2.50667 12.5867C2.4 12.4801 2.4 12.3201 2.50667 12.2134L2.66667 12.0534C2.77333 11.9467 2.93333 11.9467 3.04 12.0534L10.3467 21.7067C10.4533 21.8134 10.4533 21.9734 10.3467 22.0801L10.1867 22.2401Z" fill="#FFE62E"/>
<path d="M8.10651 9.33325C8.26651 9.33325 8.37318 9.43992 8.37318 9.59992V22.3999C8.37318 22.5599 8.26651 22.6666 8.10651 22.6666H7.83985C7.67985 22.6666 7.57318 22.5599 7.57318 22.3999V9.59992C7.57318 9.43992 7.67985 9.33325 7.83985 9.33325H8.10651Z" fill="#FFE62E"/>
<path d="M14.3464 16.6931L7.99974 15.5731V16.3731L14.2397 17.4931C14.3997 17.4931 14.5064 17.4398 14.5597 17.2798L14.6131 17.0131C14.6131 16.9065 14.5064 16.7465 14.3464 16.6931ZM7.99974 15.5198L2.9864 11.9998C2.87974 11.8931 2.71974 11.9465 2.61307 12.0531L2.45307 12.2665C2.3464 12.3731 2.39974 12.5331 2.5064 12.6398L7.99974 16.4798V15.5198Z" fill="#FFE62E"/>
<path d="M7.78643 14.9332L2.7731 19.9465C2.66643 20.0532 2.66643 20.2132 2.7731 20.3199L2.98643 20.5332C3.0931 20.6399 3.2531 20.6399 3.35977 20.5332L7.78643 16.1065V14.9332ZM7.99977 12.5332L1.3331 15.6799C1.22643 15.7332 1.11977 15.8932 1.22643 16.0532L1.3331 16.3199C1.38643 16.4265 1.54643 16.5332 1.70643 16.4265L7.99977 13.4399V12.5332Z" fill="#FFE62E"/>
<path d="M13.9198 13.4398L7.57308 12.3198V13.1198L13.8131 14.2398C13.9731 14.2398 14.0797 14.1865 14.1331 14.0265L14.1864 13.7598C14.1331 13.5998 14.0264 13.4398 13.9198 13.4398ZM7.94642 19.6798C7.83975 19.7332 7.73308 19.8932 7.83975 20.0532L7.94642 20.3198C7.99975 20.4265 8.15975 20.5332 8.31975 20.4265L13.6531 17.9732L13.9198 16.9598L7.94642 19.6798ZM7.94642 17.8665L1.97308 15.6798V16.5332L7.94642 18.7198V17.8665Z" fill="#FFE62E"/>
<path d="M3.78659 19.6265V20.4265L11.6799 20.9598C11.9999 20.7465 12.2666 20.4798 12.5333 20.2131L3.78659 19.6265Z" fill="#FFE62E"/>
<path d="M5.33313 13.3333V17.0666C5.33313 18.5599 6.50646 19.7333 7.9998 19.7333C9.49313 19.7333 10.6665 18.5599 10.6665 17.0666V13.3333H5.33313Z" fill="white"/>
<path d="M7.99984 20.7999C5.91984 20.7999 4.26651 19.1466 4.26651 17.0666V12.2666H11.7332V17.0666C11.7332 19.1466 10.0798 20.7999 7.99984 20.7999ZM6.39984 14.3999V17.0666C6.39984 17.9733 7.09318 18.6666 7.99984 18.6666C8.90651 18.6666 9.59984 17.9733 9.59984 17.0666V14.3999H6.39984Z" fill="#ED4C5C"/>
<path d="M7.51994 14.6131V15.4665C7.51994 15.6265 7.62661 15.7331 7.78661 15.7331H8.21328C8.37328 15.7331 8.47994 15.6265 8.47994 15.4665V14.5598H7.51994V14.6131ZM7.51994 15.9465V16.8531C7.51994 17.0131 7.62661 17.1198 7.78661 17.1198H8.21328C8.37328 17.1198 8.47994 17.0131 8.47994 16.8531V15.9465H7.51994ZM6.45328 15.9465V16.8531C6.45328 17.0131 6.55994 17.1198 6.71994 17.1198H7.14661C7.30661 17.1198 7.41328 17.0131 7.41328 16.8531V15.9465H6.45328ZM8.58661 15.9465V16.8531C8.58661 17.0131 8.69328 17.1198 8.85328 17.1198H9.27994C9.43994 17.1198 9.54661 17.0131 9.54661 16.8531V15.9465H8.58661ZM7.51994 17.2265V18.1331C7.51994 18.2931 7.62661 18.3998 7.78661 18.3998H8.21328C8.37328 18.3998 8.47994 18.2931 8.47994 18.1331V17.2265H7.51994Z" fill="#0071BC"/>
<path d="M8.00014 16.5873C8.05916 16.5873 8.107 16.5394 8.107 16.4804C8.107 16.4214 8.05916 16.3735 8.00014 16.3735C7.94112 16.3735 7.89328 16.4214 7.89328 16.4804C7.89328 16.5394 7.94112 16.5873 8.00014 16.5873Z" fill="white"/>
<path d="M7.78667 16.8539C7.84569 16.8539 7.89353 16.806 7.89353 16.747C7.89353 16.688 7.84569 16.6401 7.78667 16.6401C7.72765 16.6401 7.67981 16.688 7.67981 16.747C7.67981 16.806 7.72765 16.8539 7.78667 16.8539Z" fill="white"/>
<path d="M8.21352 16.8539C8.27254 16.8539 8.32038 16.806 8.32038 16.747C8.32038 16.688 8.27254 16.6401 8.21352 16.6401C8.1545 16.6401 8.10666 16.688 8.10666 16.747C8.10666 16.806 8.1545 16.8539 8.21352 16.8539Z" fill="white"/>
<path d="M7.78667 16.3204C7.84569 16.3204 7.89353 16.2726 7.89353 16.2136C7.89353 16.1545 7.84569 16.1067 7.78667 16.1067C7.72765 16.1067 7.67981 16.1545 7.67981 16.2136C7.67981 16.2726 7.72765 16.3204 7.78667 16.3204Z" fill="white"/>
<path d="M8.21352 16.3204C8.27254 16.3204 8.32038 16.2726 8.32038 16.2136C8.32038 16.1545 8.27254 16.1067 8.21352 16.1067C8.1545 16.1067 8.10666 16.1545 8.10666 16.2136C8.10666 16.2726 8.1545 16.3204 8.21352 16.3204Z" fill="white"/>
<path d="M8.00014 15.2538C8.05916 15.2538 8.107 15.2059 8.107 15.1469C8.107 15.0879 8.05916 15.04 8.00014 15.04C7.94112 15.04 7.89328 15.0879 7.89328 15.1469C7.89328 15.2059 7.94112 15.2538 8.00014 15.2538Z" fill="white"/>
<path d="M7.78667 15.5204C7.84569 15.5204 7.89353 15.4725 7.89353 15.4135C7.89353 15.3545 7.84569 15.3066 7.78667 15.3066C7.72765 15.3066 7.67981 15.3545 7.67981 15.4135C7.67981 15.4725 7.72765 15.5204 7.78667 15.5204Z" fill="white"/>
<path d="M8.21352 15.5204C8.27254 15.5204 8.32038 15.4725 8.32038 15.4135C8.32038 15.3545 8.27254 15.3066 8.21352 15.3066C8.1545 15.3066 8.10666 15.3545 8.10666 15.4135C8.10666 15.4725 8.1545 15.5204 8.21352 15.5204Z" fill="white"/>
<path d="M7.78667 14.9872C7.84569 14.9872 7.89353 14.9393 7.89353 14.8803C7.89353 14.8213 7.84569 14.7734 7.78667 14.7734C7.72765 14.7734 7.67981 14.8213 7.67981 14.8803C7.67981 14.9393 7.72765 14.9872 7.78667 14.9872Z" fill="white"/>
<path d="M8.21352 14.9872C8.27254 14.9872 8.32038 14.9393 8.32038 14.8803C8.32038 14.8213 8.27254 14.7734 8.21352 14.7734C8.1545 14.7734 8.10666 14.8213 8.10666 14.8803C8.10666 14.9393 8.1545 14.9872 8.21352 14.9872Z" fill="white"/>
<path d="M9.06679 16.5873C9.12581 16.5873 9.17365 16.5394 9.17365 16.4804C9.17365 16.4214 9.12581 16.3735 9.06679 16.3735C9.00777 16.3735 8.95993 16.4214 8.95993 16.4804C8.95993 16.5394 9.00777 16.5873 9.06679 16.5873Z" fill="white"/>
<path d="M8.85363 16.8539C8.91265 16.8539 8.96049 16.806 8.96049 16.747C8.96049 16.688 8.91265 16.6401 8.85363 16.6401C8.79461 16.6401 8.74677 16.688 8.74677 16.747C8.74677 16.806 8.79461 16.8539 8.85363 16.8539Z" fill="white"/>
<path d="M9.28017 16.8539C9.33919 16.8539 9.38703 16.806 9.38703 16.747C9.38703 16.688 9.33919 16.6401 9.28017 16.6401C9.22115 16.6401 9.17331 16.688 9.17331 16.747C9.17331 16.806 9.22115 16.8539 9.28017 16.8539Z" fill="white"/>
<path d="M8.85363 16.3204C8.91265 16.3204 8.96049 16.2726 8.96049 16.2136C8.96049 16.1545 8.91265 16.1067 8.85363 16.1067C8.79461 16.1067 8.74677 16.1545 8.74677 16.2136C8.74677 16.2726 8.79461 16.3204 8.85363 16.3204Z" fill="white"/>
<path d="M9.28017 16.3204C9.33919 16.3204 9.38703 16.2726 9.38703 16.2136C9.38703 16.1545 9.33919 16.1067 9.28017 16.1067C9.22115 16.1067 9.17331 16.1545 9.17331 16.2136C9.17331 16.2726 9.22115 16.3204 9.28017 16.3204Z" fill="white"/>
<path d="M6.93349 16.5873C6.99251 16.5873 7.04035 16.5394 7.04035 16.4804C7.04035 16.4214 6.99251 16.3735 6.93349 16.3735C6.87447 16.3735 6.82663 16.4214 6.82663 16.4804C6.82663 16.5394 6.87447 16.5873 6.93349 16.5873Z" fill="white"/>
<path d="M6.72002 16.8539C6.77904 16.8539 6.82688 16.806 6.82688 16.747C6.82688 16.688 6.77904 16.6401 6.72002 16.6401C6.661 16.6401 6.61316 16.688 6.61316 16.747C6.61316 16.806 6.661 16.8539 6.72002 16.8539Z" fill="white"/>
<path d="M7.14687 16.8539C7.20589 16.8539 7.25373 16.806 7.25373 16.747C7.25373 16.688 7.20589 16.6401 7.14687 16.6401C7.08785 16.6401 7.04001 16.688 7.04001 16.747C7.04001 16.806 7.08785 16.8539 7.14687 16.8539Z" fill="white"/>
<path d="M6.72002 16.3204C6.77904 16.3204 6.82688 16.2726 6.82688 16.2136C6.82688 16.1545 6.77904 16.1067 6.72002 16.1067C6.661 16.1067 6.61316 16.1545 6.61316 16.2136C6.61316 16.2726 6.661 16.3204 6.72002 16.3204Z" fill="white"/>
<path d="M7.14687 16.3204C7.20589 16.3204 7.25373 16.2726 7.25373 16.2136C7.25373 16.1545 7.20589 16.1067 7.14687 16.1067C7.08785 16.1067 7.04001 16.1545 7.04001 16.2136C7.04001 16.2726 7.08785 16.3204 7.14687 16.3204Z" fill="white"/>
<path d="M8.00014 17.9205C8.05916 17.9205 8.107 17.8727 8.107 17.8136C8.107 17.7546 8.05916 17.7068 8.00014 17.7068C7.94112 17.7068 7.89328 17.7546 7.89328 17.8136C7.89328 17.8727 7.94112 17.9205 8.00014 17.9205Z" fill="white"/>
<path d="M7.78667 18.1871C7.84569 18.1871 7.89353 18.1393 7.89353 18.0803C7.89353 18.0212 7.84569 17.9734 7.78667 17.9734C7.72765 17.9734 7.67981 18.0212 7.67981 18.0803C7.67981 18.1393 7.72765 18.1871 7.78667 18.1871Z" fill="white"/>
<path d="M8.21352 18.1871C8.27254 18.1871 8.32038 18.1393 8.32038 18.0803C8.32038 18.0212 8.27254 17.9734 8.21352 17.9734C8.1545 17.9734 8.10666 18.0212 8.10666 18.0803C8.10666 18.1393 8.1545 18.1871 8.21352 18.1871Z" fill="white"/>
<path d="M7.78667 17.6539C7.84569 17.6539 7.89353 17.6061 7.89353 17.547C7.89353 17.488 7.84569 17.4402 7.78667 17.4402C7.72765 17.4402 7.67981 17.488 7.67981 17.547C7.67981 17.6061 7.72765 17.6539 7.78667 17.6539Z" fill="white"/>
<path d="M8.21352 17.6539C8.27254 17.6539 8.32038 17.6061 8.32038 17.547C8.32038 17.488 8.27254 17.4402 8.21352 17.4402C8.1545 17.4402 8.10666 17.488 8.10666 17.547C8.10666 17.6061 8.1545 17.6539 8.21352 17.6539Z" fill="white"/>
<path d="M7.46643 13.8665H8.5331L8.42643 13.3332V12.7999H8.5331V12.5332H8.3731V12.6932H8.31976V12.5332H8.15976V12.6932H8.0531V12.5332H7.94643V12.6932H7.83976V12.5332H7.67976V12.6932H7.5731V12.5332H7.46643V12.7999H7.5731V13.3332L7.46643 13.8665Z" fill="#FFE62E"/>
<path d="M8.15981 13.8664H8.10648V13.653C8.10648 13.5997 8.05314 13.5464 7.99981 13.5464C7.94648 13.5464 7.89314 13.5997 7.89314 13.653V13.8664H7.83981V13.653C7.83981 13.5464 7.89314 13.493 7.99981 13.493C8.10648 13.493 8.15981 13.5464 8.15981 13.653V13.8664ZM7.99981 13.2797H7.67981V13.013C7.67981 12.9064 7.73314 12.853 7.83981 12.853C7.94648 12.853 7.99981 12.9064 7.99981 13.013V13.2797ZM7.73314 13.2264H7.94648V13.013C7.94648 12.9597 7.89314 12.9064 7.83981 12.9064C7.78648 12.9064 7.73314 12.9597 7.73314 13.013V13.2264ZM8.31981 13.2797H7.99981V13.013C7.99981 12.9064 8.05314 12.853 8.15981 12.853C8.26648 12.853 8.31981 12.9064 8.31981 13.013V13.2797ZM8.05314 13.2264H8.26648V13.013C8.26648 12.9597 8.21314 12.9064 8.15981 12.9064C8.10648 12.9064 8.05314 12.9597 8.05314 13.013V13.2264Z" fill="#3E4347"/>
<path d="M4.79999 13.8665H5.86665L5.75999 13.3332V12.7999H5.86665V12.5332H5.70665V12.6932H5.65332V12.5332H5.49332V12.6932H5.38665V12.5332H5.27999V12.6932H5.17332V12.5332H5.01332V12.6932H4.90665V12.5332H4.79999V12.7999H4.90665V13.3332L4.79999 13.8665Z" fill="#FFE62E"/>
<path d="M5.49334 13.8664H5.44V13.653C5.44 13.5997 5.38667 13.5464 5.33334 13.5464C5.28 13.5464 5.22667 13.5997 5.22667 13.653V13.8664H5.17334V13.653C5.17334 13.5464 5.22667 13.493 5.33334 13.493C5.44 13.493 5.49334 13.5464 5.49334 13.653V13.8664ZM5.33334 13.2797H5.01334V13.013C5.01334 12.9064 5.06667 12.853 5.17334 12.853C5.28 12.853 5.33334 12.9064 5.33334 13.013V13.2797ZM5.06667 13.2264H5.28V13.013C5.28 12.9597 5.22667 12.9064 5.17334 12.9064C5.12 12.9064 5.06667 12.9597 5.06667 13.013V13.2264Z" fill="#3E4347"/>
<path d="M5.65408 13.2807H5.3335V13.0136C5.3335 12.9067 5.38693 12.8533 5.49379 12.8533C5.60065 12.8533 5.65408 12.9067 5.65408 13.0136V13.2807ZM5.38693 13.2273H5.60065V13.0136C5.60065 12.9601 5.54722 12.9067 5.49379 12.9067C5.44036 12.9067 5.38693 12.9601 5.38693 13.0136V13.2273Z" fill="#3E4347"/>
<path d="M4.79999 17.0135H5.86665L5.75999 16.4802V15.9468H5.86665V15.6802H5.75999V15.8402H5.65332V15.6802H5.54665V15.8402H5.38665V15.6802H5.27999V15.8402H5.17332V15.6802H5.06665V15.8402H4.95999V15.6802H4.79999V15.9468H4.95999V16.4802L4.79999 17.0135Z" fill="#FFE62E"/>
<path d="M5.49334 17.0133H5.44V16.8C5.44 16.7467 5.38667 16.6933 5.33334 16.6933C5.28 16.6933 5.22667 16.7467 5.22667 16.8V17.0133H5.17334V16.8C5.17334 16.6933 5.22667 16.64 5.33334 16.64C5.44 16.64 5.49334 16.6933 5.49334 16.8V17.0133ZM5.33334 16.4267H5.01334V16.16C5.01334 16.0533 5.06667 16 5.17334 16C5.28 16 5.33334 16.0533 5.33334 16.16V16.4267ZM5.06667 16.3733H5.28V16.16C5.28 16.1067 5.22667 16.0533 5.17334 16.0533C5.12 16.0533 5.06667 16.1067 5.06667 16.16V16.3733ZM5.70667 16.4267H5.38667V16.16C5.38667 16.0533 5.44 16 5.54667 16C5.65334 16 5.70667 16.0533 5.70667 16.16V16.4267ZM5.44 16.3733H5.65334V16.16C5.65334 16.1067 5.6 16.0533 5.54667 16.0533C5.49334 16.0533 5.44 16.1067 5.44 16.16V16.3733Z" fill="#3E4347"/>
<path d="M10.1332 17.0664H11.1999L11.0932 16.533V15.9997H11.1999V15.7864H11.0399V15.893H10.9866V15.7864H10.8266V15.893H10.7199V15.7864H10.6132V15.893H10.5066V15.7864H10.3466V15.893H10.2399V15.7864H10.1332V15.9997H10.2399V16.533L10.1332 17.0664Z" fill="#FFE62E"/>
<path d="M10.8266 17.0666H10.7733V16.8532C10.7733 16.7999 10.7199 16.7466 10.6666 16.7466C10.6133 16.7466 10.5599 16.7999 10.5599 16.8532V17.0666H10.5066V16.8532C10.5066 16.7466 10.5599 16.6932 10.6666 16.6932C10.7733 16.6932 10.8266 16.7466 10.8266 16.8532V17.0666ZM10.6666 16.4799H10.3466V16.2132C10.3466 16.1066 10.3999 16.0532 10.5066 16.0532C10.6133 16.0532 10.6666 16.1066 10.6666 16.2132V16.4799ZM10.3999 16.4266H10.6133V16.2132C10.6133 16.1599 10.5599 16.1066 10.5066 16.1066C10.4533 16.1066 10.3999 16.1599 10.3999 16.2132V16.4266ZM10.9866 16.4799H10.6666V16.2132C10.6666 16.1066 10.7199 16.0532 10.8266 16.0532C10.9333 16.0532 10.9866 16.1066 10.9866 16.2132V16.4799ZM10.7199 16.4266H10.9333V16.2132C10.9333 16.1599 10.8799 16.1066 10.8266 16.1066C10.7733 16.1066 10.7199 16.1599 10.7199 16.2132V16.4266Z" fill="#3E4347"/>
<path d="M10.1332 13.8665H11.1999L11.0932 13.3332V12.7999H11.1999V12.5332H11.0399V12.6932H10.9866V12.5332H10.8266V12.6932H10.7199V12.5332H10.6132V12.6932H10.5066V12.5332H10.3466V12.6932H10.2399V12.5332H10.1332V12.7999H10.2399V13.3332L10.1332 13.8665Z" fill="#FFE62E"/>
<path d="M10.8266 13.8664H10.7733V13.653C10.7733 13.5997 10.7199 13.5464 10.6666 13.5464C10.6133 13.5464 10.5599 13.5997 10.5599 13.653V13.8664H10.5066V13.653C10.5066 13.5464 10.5599 13.493 10.6666 13.493C10.7733 13.493 10.8266 13.5464 10.8266 13.653V13.8664ZM10.6666 13.2797H10.3466V13.013C10.3466 12.9064 10.3999 12.853 10.5066 12.853C10.6133 12.853 10.6666 12.9064 10.6666 13.013V13.2797ZM10.3999 13.2264H10.6133V13.013C10.6133 12.9597 10.5599 12.9064 10.5066 12.9064C10.4533 12.9064 10.3999 12.9597 10.3999 13.013V13.2264ZM10.9866 13.2797H10.6666V13.013C10.6666 12.9064 10.7199 12.853 10.8266 12.853C10.9333 12.853 10.9866 12.9064 10.9866 13.013V13.2797ZM10.7199 13.2264H10.9333V13.013C10.9333 12.9597 10.8799 12.9064 10.8266 12.9064C10.7733 12.9064 10.7199 12.9597 10.7199 13.013V13.2264Z" fill="#3E4347"/>
<path d="M6.50646 20.0536L7.25313 19.2536L6.77313 18.9869L6.39979 18.6136L6.50646 18.5069L6.34646 18.3469L6.23979 18.4536L6.34646 18.5603L6.29313 18.6136L6.18646 18.5069L6.07979 18.6136L6.18646 18.6669L6.07979 18.7736L6.02646 18.6669L5.91979 18.7736L6.02646 18.8803L5.91979 18.9336L5.86646 18.8269L5.75979 18.9336L5.81313 19.0403L5.75979 19.0936L5.70646 18.9869L5.59979 19.0936L5.75979 19.2536H5.81313L5.86646 19.2003L6.23979 19.5736L6.50646 20.0536Z" fill="#FFE62E"/>
<path d="M6.77334 19.413C6.72001 19.3597 6.66668 19.3597 6.61334 19.413C6.56001 19.4664 6.56001 19.5197 6.61334 19.573L6.77334 19.733L6.72001 19.7864L6.56001 19.6264C6.50668 19.573 6.50668 19.4664 6.56001 19.413C6.61334 19.3597 6.72001 19.3597 6.77334 19.413ZM6.45334 19.253L6.24001 19.4664L6.08001 19.3064C6.02668 19.253 6.02668 19.1464 6.08001 19.093C6.13334 19.0397 6.24001 19.0397 6.29334 19.093L6.45334 19.253ZM6.24001 19.413L6.40001 19.253L6.24001 19.093C6.18668 19.0397 6.13334 19.0397 6.08001 19.093C6.02668 19.1464 6.02668 19.1997 6.08001 19.253L6.24001 19.413ZM6.72001 18.9864L6.50668 19.1997L6.34668 19.0397C6.29334 18.9864 6.29334 18.8797 6.34668 18.8264C6.40001 18.773 6.50668 18.773 6.56001 18.8264L6.72001 18.9864ZM6.50668 19.1464L6.66668 18.9864L6.50668 18.8264C6.45334 18.773 6.40001 18.773 6.34668 18.8264C6.29334 18.8797 6.29334 18.933 6.34668 18.9864L6.50668 19.1464Z" fill="#3E4347"/>
<path d="M9.49343 20.0536L8.74677 19.2536L9.17343 18.9869L9.54677 18.6136L9.49343 18.5069L9.65343 18.3469L9.7601 18.4536L9.65343 18.5603L9.70677 18.6136L9.81343 18.5069L9.9201 18.6136L9.81343 18.6669L9.9201 18.7736L9.97343 18.6669L10.0801 18.7736L9.97343 18.8803L10.0801 18.9336L10.1334 18.8269L10.2401 18.9336L10.1334 19.0403L10.2401 19.0936L10.2934 18.9869L10.4001 19.0936L10.2401 19.2536H10.1868L10.1334 19.2003L9.7601 19.5736L9.49343 20.0536Z" fill="#FFE62E"/>
<path d="M9.01343 19.5197L9.22676 19.413C9.28009 19.3597 9.33343 19.3597 9.38676 19.413C9.44009 19.4664 9.44009 19.5197 9.38676 19.573L9.17343 19.733L9.22676 19.7864L9.38676 19.6264C9.44009 19.573 9.44009 19.4664 9.38676 19.413C9.33343 19.3597 9.22676 19.3597 9.17343 19.413L9.01343 19.5197ZM9.70676 19.093C9.7601 19.0397 9.86676 19.0397 9.92009 19.093C9.97343 19.1464 9.97343 19.253 9.92009 19.3064L9.76009 19.4664L9.54676 19.253L9.70676 19.093ZM9.86676 19.253C9.92009 19.1997 9.92009 19.1464 9.86676 19.093C9.81343 19.0397 9.7601 19.0397 9.70676 19.093L9.60009 19.253L9.76009 19.413L9.86676 19.253ZM9.4401 18.8264C9.49343 18.773 9.60009 18.773 9.65343 18.8264C9.70676 18.8797 9.70676 18.9864 9.65343 19.0397L9.49343 19.1997L9.28009 18.9864L9.4401 18.8264ZM9.65343 18.9864C9.70676 18.933 9.70676 18.8797 9.65343 18.8264C9.60009 18.773 9.54676 18.773 9.49343 18.8264L9.33343 18.9864L9.49343 19.1464L9.65343 18.9864Z" fill="#3E4347"/>
</g>
<defs>
<clipPath id="clip0_2001_496">
<rect width="32" height="32" fill="white"/>
</clipPath>
</defs>
</svg>
