<svg width="22" height="20" viewBox="0 0 22 20" fill="none" xmlns="http://www.w3.org/2000/svg">
<g clip-path="url(#clip0_229_2680)">
<path d="M10.8107 11.056L6.75336 12.3607L0.185745 7.63965L10.8107 11.056Z" fill="#929292"/>
<path d="M10.8107 11.056L6.75336 12.3607L0.185745 7.63965L10.8107 11.056Z" fill="url(#paint0_linear_229_2680)"/>
<path d="M10.8107 11.0559V15.2791L4.2455 20.0001L10.8107 11.0559Z" fill="#919191"/>
<path d="M10.8107 11.0559V15.2791L4.2455 20.0001L10.8107 11.0559Z" fill="url(#paint1_linear_229_2680)"/>
<path d="M14.8681 12.3606L17.376 20.0001L10.8107 11.0559L14.8681 12.3606Z" fill="#C6C6C6"/>
<path d="M21.4357 7.63965L10.8107 11.056L13.3186 7.63965L21.4357 7.63965Z" fill="url(#paint2_linear_229_2680)"/>
<path d="M10.8109 0L10.8109 11.0558L8.30301 7.63949L10.8109 0Z" fill="#ACACAC"/>
<path d="M10.8109 0L10.8109 11.0558L8.30301 7.63949L10.8109 0Z" fill="url(#paint3_linear_229_2680)"/>
<path d="M10.8107 11.056L0.185745 7.63965L8.30289 7.63965L10.8107 11.056Z" fill="#BEBEBE"/>
<path d="M10.8107 11.056L0.185745 7.63965L8.30289 7.63965L10.8107 11.056Z" fill="url(#paint4_linear_229_2680)"/>
<path d="M10.8107 11.0559L4.2455 20.0001L6.75335 12.3606L10.8107 11.0559Z" fill="#B4B4B4"/>
<path d="M10.8107 11.0559L4.2455 20.0001L6.75335 12.3606L10.8107 11.0559Z" fill="url(#paint5_linear_229_2680)"/>
<path d="M10.8107 11.0559L17.376 20.0001L10.8107 15.2791V11.0559Z" fill="#A3A3A3"/>
<path d="M21.4357 7.63965L14.8681 12.3607L10.8107 11.056L21.4357 7.63965Z" fill="#ACACAC"/>
<path d="M10.8107 0L13.3186 7.63949L10.8107 11.0558L10.8107 0Z" fill="#D9D9D9"/>
</g>
<defs>
<linearGradient id="paint0_linear_229_2680" x1="-1.86202" y1="6.44111" x2="11.0262" y2="12.9535" gradientUnits="userSpaceOnUse">
<stop stop-color="#F9AB21"/>
<stop offset="1" stop-color="#CE7904"/>
</linearGradient>
<linearGradient id="paint1_linear_229_2680" x1="4.38853" y1="17.6125" x2="10.8546" y2="13.2306" gradientUnits="userSpaceOnUse">
<stop stop-color="#F9AB21"/>
<stop offset="1" stop-color="#CE7904"/>
</linearGradient>
<linearGradient id="paint2_linear_229_2680" x1="22.0413" y1="6.13204" x2="10.969" y2="9.78591" gradientUnits="userSpaceOnUse">
<stop offset="1" stop-color="#CBCBCB"/>
</linearGradient>
<linearGradient id="paint3_linear_229_2680" x1="10.079" y1="-2.239" x2="9.57229" y2="9.25374" gradientUnits="userSpaceOnUse">
<stop stop-color="#FBC12A"/>
<stop offset="1" stop-color="#F29C14"/>
</linearGradient>
<linearGradient id="paint4_linear_229_2680" x1="3.16084" y1="7.09464" x2="12.7717" y2="12.0425" gradientUnits="userSpaceOnUse">
<stop stop-color="#FDD733"/>
<stop offset="1" stop-color="#F29C14"/>
</linearGradient>
<linearGradient id="paint5_linear_229_2680" x1="4.59593" y1="17.7446" x2="10.5002" y2="9.05004" gradientUnits="userSpaceOnUse">
<stop stop-color="#FBC12A"/>
<stop offset="1" stop-color="#F29C14"/>
</linearGradient>
<clipPath id="clip0_229_2680">
<rect width="21.25" height="20" fill="white" transform="translate(0.185745)"/>
</clipPath>
</defs>
</svg>
