<svg width="16" height="18" viewBox="0 0 16 18" fill="none" xmlns="http://www.w3.org/2000/svg">
<path d="M6.35889 17.6812C6.74072 17.6812 7.03955 17.3823 7.03955 17.0088V1.01318C7.03955 0.639648 6.74072 0.34082 6.35889 0.34082C5.98535 0.34082 5.70312 0.639648 5.70312 1.01318V17.0088C5.70312 17.3823 5.98535 17.6812 6.35889 17.6812ZM11.9536 15.8384C12.3271 15.8384 12.6177 15.5396 12.6177 15.1743V2.84766C12.6177 2.48242 12.3271 2.17529 11.9536 2.17529C11.5635 2.17529 11.2812 2.48242 11.2812 2.84766V15.1743C11.2812 15.5396 11.5635 15.8384 11.9536 15.8384ZM3.56982 14.3359C3.95166 14.3359 4.24219 14.0371 4.24219 13.6636V4.3584C4.24219 3.98486 3.95166 3.67773 3.56982 3.67773C3.19629 3.67773 2.90576 3.98486 2.90576 4.3584V13.6636C2.90576 14.0371 3.19629 14.3359 3.56982 14.3359ZM9.15625 13.3232C9.53809 13.3232 9.82861 13.0327 9.82861 12.6592V5.36279C9.82861 4.98926 9.53809 4.69043 9.15625 4.69043C8.77441 4.69043 8.49219 4.98926 8.49219 5.36279V12.6592C8.49219 13.0327 8.77441 13.3232 9.15625 13.3232ZM14.7427 11.6548C15.1162 11.6548 15.415 11.356 15.415 10.9907V7.03125C15.415 6.66602 15.1162 6.35889 14.7427 6.35889C14.3608 6.35889 14.0786 6.66602 14.0786 7.03125V10.9907C14.0786 11.356 14.3608 11.6548 14.7427 11.6548ZM0.772461 10.9409C1.1626 10.9409 1.45312 10.6421 1.45312 10.2686V7.75342C1.45312 7.37988 1.1626 7.07275 0.772461 7.07275C0.398926 7.07275 0.116699 7.37988 0.116699 7.75342V10.2686C0.116699 10.6421 0.398926 10.9409 0.772461 10.9409Z" fill="#D2FF51"/>
</svg>
